<svg width="256" height="48" viewBox="0 0 256 48" fill="none" xmlns="http://www.w3.org/2000/svg">
<rect width="256" height="48" fill="white"/>
<path d="M71.8598 17.5496C71.7765 17.5353 71.6908 17.5213 71.6039 17.508L71.5009 17.4931C71.354 17.4731 71.2068 17.4562 71.0592 17.4425C70.958 17.4327 70.8569 17.4258 70.7563 17.4199C70.5768 17.4089 70.3991 17.4044 70.2283 17.4044C70.1503 17.4044 70.1057 17.4059 70.0295 17.4068C69.8858 17.4091 69.7462 17.4157 69.6084 17.4246C69.5298 17.4297 69.4527 17.4365 69.3762 17.4431C69.2632 17.4532 69.1513 17.4654 69.0414 17.4794L68.9492 17.4919L68.8474 17.5068L68.7215 17.5267C68.5926 17.5475 68.4643 17.5716 68.3367 17.599C67.8861 17.6943 67.4695 17.821 67.0844 17.971C66.8862 18.0484 66.6945 18.1317 66.5138 18.221C66.0858 18.4283 65.6797 18.6784 65.302 18.9674C65.0777 19.1396 64.8646 19.3258 64.6639 19.5249C64.5017 19.6844 64.3485 19.8531 64.2053 20.0299C64.1264 20.1275 64.0487 20.2272 63.9743 20.3305C63.8818 20.4593 63.7939 20.5913 63.7107 20.7263C63.5079 21.0568 63.3359 21.4052 63.1967 21.767C63.013 22.2455 62.8864 22.744 62.8196 23.2521C62.7797 23.5538 62.759 23.8576 62.7577 24.1619C62.7577 24.2637 62.7586 24.3643 62.7652 24.4637C62.772 24.5678 62.78 24.6702 62.7919 24.772L62.7994 24.8434C62.8326 25.1076 62.8841 25.3691 62.9535 25.6261C63.0252 25.8938 63.1145 26.1565 63.2208 26.4124C63.3987 26.8394 63.621 27.2466 63.8839 27.6273C63.9577 27.7344 64.0348 27.8377 64.1106 27.9359C64.191 28.04 64.2743 28.1374 64.3547 28.2305C64.4559 28.3466 64.558 28.4531 64.6562 28.551L64.7097 28.6031C64.7913 28.6817 64.8794 28.7668 64.9815 28.8531C65.0508 28.912 65.1225 28.9739 65.2008 29.0353C65.2737 29.0924 65.3487 29.1513 65.4294 29.2088C65.6418 29.3631 65.8631 29.5048 66.0921 29.6331C66.5846 29.9086 67.1077 30.1252 67.6507 30.2787C67.8692 30.3406 68.0992 30.3962 68.3406 30.4432C68.8618 30.5426 69.3906 30.5966 69.9212 30.6045C69.9724 30.6054 70.0244 30.6066 70.0759 30.6066C70.4467 30.6076 70.8173 30.5931 71.1869 30.5632L71.2542 30.5572C71.5743 30.5285 71.893 30.4861 72.2095 30.4301C72.5844 30.3617 72.9552 30.2724 73.3202 30.1626C73.4422 30.126 73.5603 30.087 73.6713 30.0489L73.7797 30.0111C73.8332 29.9921 73.9068 29.9659 73.9934 29.9319C74.1076 29.8873 74.2457 29.8328 74.4026 29.7659C74.4957 29.7257 74.5975 29.6802 74.7014 29.632C74.7936 29.5903 74.8918 29.5427 74.9895 29.4951C75.0311 29.4748 75.0728 29.4558 75.1145 29.4346V26.9972C75.0865 27.0151 75.0561 27.0329 75.0273 27.0502L74.86 27.1514C74.6933 27.2526 74.5326 27.3472 74.371 27.4353C73.9243 27.6803 73.4592 27.8901 72.98 28.063C72.461 28.2508 71.9253 28.3888 71.3801 28.4749C71.1111 28.5161 70.84 28.5427 70.5682 28.5546C70.4759 28.5585 70.3896 28.5606 70.3093 28.5606C70.1366 28.5606 69.9587 28.5561 69.7774 28.5433C69.5609 28.5287 69.3451 28.5034 69.131 28.4677C68.7726 28.4083 68.4203 28.3167 68.0784 28.1939C68.0278 28.1755 67.9763 28.1546 67.9254 28.1344C67.8348 28.0984 67.7452 28.0599 67.6567 28.0189C67.5382 27.9624 67.4195 27.902 67.304 27.8368C67.1865 27.7692 67.0718 27.697 66.96 27.6204C66.8883 27.5708 66.8181 27.5192 66.7493 27.4657C66.6845 27.4147 66.621 27.3621 66.5588 27.3079L66.4778 27.2353L66.4377 27.1984L66.4138 27.1758L66.3841 27.1475C66.2787 27.0427 66.1782 26.9331 66.0829 26.819C65.8806 26.5748 65.7077 26.3077 65.5677 26.0231C65.4753 25.8353 65.3968 25.641 65.3329 25.4416C65.2135 25.063 65.144 24.6704 65.1264 24.2738C65.1219 24.1762 65.1204 24.0917 65.1204 24.0238C65.1211 23.7992 65.1373 23.5748 65.1689 23.3524C65.1868 23.2304 65.2118 23.0994 65.2439 22.9625C65.2881 22.778 65.3446 22.5967 65.413 22.4197C65.4353 22.3593 65.4612 22.2992 65.4874 22.2382C65.5231 22.1557 65.563 22.0736 65.6058 21.9897C65.638 21.9272 65.6737 21.8647 65.71 21.8013C65.8242 21.6041 65.9544 21.4167 66.0993 21.2409C66.1508 21.1784 66.2055 21.1144 66.2624 21.0534C66.2912 21.023 66.3198 20.9909 66.3499 20.9605C66.7747 20.5359 67.2725 20.1911 67.8195 19.9427C67.8998 19.9061 67.9825 19.8731 68.0641 19.8403C68.2346 19.7738 68.4083 19.7158 68.5846 19.6665C68.7544 19.6199 68.9262 19.5808 69.0995 19.5496C69.1938 19.5317 69.2879 19.518 69.3813 19.5049C69.6474 19.4712 69.9152 19.4535 70.1834 19.4519C70.2408 19.4519 70.2965 19.4513 70.353 19.4528C70.4789 19.4558 70.6024 19.46 70.7226 19.4677C70.8066 19.4737 70.8881 19.4787 70.9685 19.4862C71.2376 19.5124 71.5054 19.5515 71.7708 19.6034C71.9464 19.6382 72.1059 19.6772 72.2491 19.7147C72.3428 19.7391 72.4285 19.7647 72.5071 19.7879C72.6781 19.838 72.8472 19.8941 73.0142 19.9561C73.1342 19.9986 73.2508 20.046 73.3666 20.0921C73.5213 20.154 73.669 20.2216 73.8112 20.2855C73.9294 20.3385 74.041 20.3939 74.1466 20.4454C74.2335 20.4876 74.3142 20.5305 74.3907 20.5698C74.524 20.6382 74.6365 20.7013 74.7293 20.7513L74.9778 20.8867V18.4939C74.9778 18.4939 74.8282 18.432 74.5701 18.335C74.437 18.2838 74.3033 18.2342 74.1689 18.1862C74.0835 18.1564 73.9945 18.1237 73.899 18.0919C73.8234 18.0663 73.7455 18.0383 73.6639 18.0124C73.5728 17.9835 73.4785 17.952 73.3806 17.9225C73.3106 17.9017 73.2377 17.8794 73.1651 17.8585L73.0996 17.8401C72.9402 17.7943 72.7799 17.7517 72.6187 17.7124L72.4461 17.6707C72.3514 17.6493 72.2556 17.6282 72.1586 17.6082C72.0604 17.5865 71.9598 17.5684 71.8589 17.5499L71.8598 17.5496ZM59.8944 15.0625H78.8872V32.9363H59.8944V15.0625V15.0625ZM45.2973 24.9193V28.4311H47.5779C47.5779 28.4311 47.6234 28.4299 47.6981 28.4269C47.7749 28.424 47.8835 28.4201 48.015 28.4091C48.2638 28.3859 48.5888 28.3406 48.9049 28.2335C49.1915 28.1371 49.4704 27.9924 49.6831 27.7793C49.765 27.6975 49.8328 27.6121 49.8876 27.5258C50.0662 27.2442 50.1117 26.9573 50.1215 26.7951C50.1269 26.7249 50.1266 26.6835 50.1266 26.6835C50.1266 26.6835 50.1278 26.652 50.1266 26.5972C50.1227 26.4826 50.1069 26.3687 50.0796 26.2574C50.0301 26.0615 49.9392 25.8785 49.8129 25.7208C49.7853 25.6861 49.7558 25.653 49.7245 25.6217C49.6608 25.5573 49.5924 25.4978 49.5198 25.4437C49.3881 25.3491 49.2464 25.2695 49.0972 25.2062C48.8765 25.1138 48.6464 25.0459 48.4109 25.0038C48.2767 24.9789 48.1414 24.96 48.0055 24.9473C47.9192 24.9384 47.8329 24.9324 47.7427 24.9274C47.6625 24.922 47.5821 24.9192 47.5017 24.919C46.6922 24.919 45.2964 24.9181 45.2964 24.9181L45.2973 24.9193ZM45.2973 19.5787V22.909H46.4014C46.4014 22.909 46.4752 22.909 46.5725 22.906C46.6487 22.9036 46.7398 22.8983 46.821 22.8941C47.0481 22.8771 47.3627 22.8456 47.677 22.7578C47.7383 22.7405 47.7999 22.7215 47.8603 22.7C48.1067 22.6122 48.343 22.484 48.5269 22.3033C48.6728 22.1599 48.7695 21.9998 48.8335 21.8444C48.9114 21.6539 48.9388 21.4715 48.9501 21.3424C48.9603 21.2272 48.9597 21.154 48.9597 21.154C48.9597 21.154 48.962 21.0989 48.9573 21.0126C48.9495 20.8674 48.9195 20.6317 48.8055 20.4046C48.745 20.2875 48.666 20.181 48.5716 20.0891C48.4445 19.9676 48.2965 19.87 48.1347 19.801C47.8237 19.6641 47.468 19.6094 47.1683 19.5897C47.038 19.5808 46.9192 19.5787 46.8181 19.5787H45.2973V19.5787Z" fill="#1B1B1B"/>
<path d="M42.9918 17.569V30.4415H47.8377C47.8377 30.4415 50.2007 30.5069 51.5055 29.2016C52.5673 28.1397 52.4912 26.9109 52.4912 26.9109C52.4912 26.9109 52.5676 25.6282 51.5843 24.6443C50.7466 23.8069 49.6767 23.5836 49.6767 23.5836C49.6767 23.5836 50.16 23.3569 50.5314 22.9855C50.7052 22.8114 51.3236 22.2527 51.3236 20.8968C51.3236 19.5308 50.4138 18.7451 50.4138 18.7451C50.4138 18.7451 49.4183 17.5684 47.1699 17.5684H42.9915V17.569H42.9918ZM38.0098 15.0625H57.0023V32.9363H38.0095V15.0625H38.0098ZM23.4127 24.9193V28.4311H25.6932C25.6932 28.4311 25.7388 28.4299 25.8135 28.4269C25.8908 28.424 25.9989 28.4201 26.1304 28.4091C26.3789 28.3859 26.7042 28.3406 27.0203 28.2335C27.3069 28.1371 27.5857 27.9924 27.7982 27.7793C27.8758 27.7029 27.9444 27.6178 28.0027 27.5258C28.1818 27.2442 28.2268 26.9573 28.2369 26.7951C28.2423 26.7249 28.2417 26.6835 28.2417 26.6835C28.2417 26.6835 28.2428 26.652 28.2417 26.5972C28.2381 26.4826 28.2224 26.3687 28.1949 26.2574C28.1456 26.0615 28.0548 25.8785 27.9286 25.7208C27.901 25.6861 27.8715 25.653 27.8402 25.6217C27.7766 25.5573 27.7083 25.4978 27.6357 25.4437C27.5041 25.3491 27.3623 25.2695 27.2131 25.2062C26.9925 25.1137 26.7623 25.0458 26.5268 25.0038C26.3926 24.9788 26.2574 24.96 26.1215 24.9473C26.0352 24.9384 25.9489 24.9324 25.8587 24.9274C25.7785 24.922 25.6981 24.9192 25.6176 24.919C24.8087 24.919 23.4132 24.9181 23.4132 24.9181L23.4127 24.9193ZM23.4127 19.5787V22.909H24.5168C24.5168 22.909 24.5906 22.909 24.6879 22.906C24.7644 22.9036 24.8552 22.8983 24.9361 22.8941C25.1632 22.8771 25.4778 22.8456 25.792 22.7578C25.8533 22.7405 25.9149 22.7215 25.9754 22.7C26.2218 22.6122 26.4581 22.484 26.642 22.3033C26.7878 22.1599 26.8843 21.9998 26.948 21.8444C27.0262 21.6539 27.0536 21.4715 27.0649 21.3424C27.075 21.2272 27.0744 21.154 27.0744 21.154C27.0744 21.154 27.0765 21.0989 27.0721 21.0126C27.0643 20.8674 27.034 20.6317 26.9203 20.4046C26.8598 20.2875 26.7808 20.181 26.6864 20.0891C26.5592 19.9676 26.4112 19.87 26.2495 19.801C25.9388 19.6641 25.5828 19.6094 25.2831 19.5897C25.1666 19.582 25.0499 19.5784 24.9331 19.5787H23.4124H23.4127Z" fill="#1B1B1B"/>
<path d="M21.107 17.569V30.4415H25.9527C25.9527 30.4415 28.3157 30.5069 29.6204 29.2016C30.6829 28.1397 30.6061 26.9109 30.6061 26.9109C30.6061 26.9109 30.6829 25.6282 29.6996 24.6443C28.8618 23.8069 27.7919 23.5836 27.7919 23.5836C27.7919 23.5836 28.2755 23.3569 28.6467 22.9855C28.8202 22.8114 29.4389 22.2527 29.4389 20.8968C29.4389 19.5308 28.5297 18.7451 28.5297 18.7451C28.5297 18.7451 27.5339 17.5684 25.2852 17.5684H21.1067V17.569H21.107ZM16.1251 15.0625H35.1173V32.9363H16.1248V15.0625H16.1251Z" fill="#1B1B1B"/>
</svg>
