<svg width="256" height="48" viewBox="0 0 256 48" fill="none" xmlns="http://www.w3.org/2000/svg">
<rect width="256" height="48" fill="#F9E425"/>
<g clip-path="url(#clip0)">
<path d="M34.15 8.015C34.115 8.02 34.0025 8.0375 33.9 8.0525C33.3025 8.135 32.6075 8.42 31.96 8.845C31.3275 9.2625 30.8525 9.6575 29.9125 10.55C29.19 11.235 28.895 11.495 28.5575 11.7475C27.26 12.7125 25.415 13.3925 22.45 14L22.06 14.08L21.8375 13.935C20.455 13.0425 19.01 12.385 17.42 11.925C16.9325 11.7825 16.2275 11.62 15.85 11.56C15.5375 11.5125 14.905 11.505 14.675 11.5475C13.685 11.73 13.15 12.4075 13.025 13.6375C12.9825 14.0325 13.005 14.86 13.075 15.525C13.31 17.8175 13.8025 19.855 14.6375 22.0125C14.9625 22.8525 15.025 23.0825 15.025 23.4325C15.0225 23.765 14.9075 24.0275 14.6075 24.3775C14.5425 24.455 14.315 24.7 14.1075 24.9225C13.8975 25.145 13.625 25.4625 13.5025 25.625C12.685 26.71 12.215 28.0175 12.045 29.675C12.0025 30.085 12.0025 31.4575 12.045 31.9125C12.1475 33.0275 12.3 33.93 12.615 35.3125C12.8025 36.125 12.82 36.22 12.865 36.5375C12.91 36.8625 12.98 37.03 13.1225 37.165C13.205 37.245 13.47 37.3875 13.4925 37.365C13.4975 37.3625 13.455 37.225 13.4 37.06C12.5725 34.6075 12.2325 31.5775 12.5375 29.3875C12.695 28.265 12.9875 27.4025 13.4475 26.7225C13.6575 26.41 13.835 26.2075 14.07 26.015C15.1125 25.165 16.465 25.135 18.05 25.9275C19.8775 26.8425 21.1225 28.245 21.4625 29.775C21.5275 30.07 21.54 30.7125 21.4875 31.0275C21.285 32.2375 20.4775 33.145 19.33 33.455C19.0275 33.5375 18.3975 33.5475 18.03 33.4775C16.885 33.2575 15.885 32.455 15.36 31.335C15.2975 31.1975 15.205 31.0075 15.16 30.9075C15 30.57 14.735 30.4225 14.6 30.595C14.475 30.75 14.59 31.275 14.865 31.8C15.0725 32.2 15.3 32.5 15.675 32.8775C16.245 33.45 16.8175 33.775 17.5625 33.945C17.9075 34.025 18.21 34.05 19.175 34.075C20.11 34.1 20.3225 34.1225 20.6825 34.2375C20.97 34.33 21.2275 34.455 21.4975 34.635C21.83 34.8575 22.0525 35.0475 22.6875 35.65C23.315 36.245 23.545 36.4425 23.86 36.655C24.155 36.8525 24.4075 36.9775 24.7275 37.0825C24.9625 37.1625 25.1975 37.2125 26.25 37.4125C27.26 37.6075 27.815 37.9025 28.1875 38.4475L28.3025 38.6175L28.24 38.84C28.0725 39.4425 27.9975 39.7975 28.0225 39.8475C28.0525 39.9025 28.29 40 28.4 40C28.545 40 28.565 39.9575 28.725 39.3175C28.94 38.4425 29.02 38.225 29.24 37.8975C29.515 37.4875 29.765 37.18 30.11 36.835C31.095 35.855 32.315 35.22 33.5175 35.0625C35.045 34.8625 36.455 35.565 37.2225 36.9125C37.5525 37.4925 37.7125 38.1175 37.695 38.77L37.6875 39.1L37.7625 39.13C38.0025 39.23 38.315 39.0625 38.415 38.7825C38.46 38.6525 38.4575 38.26 38.41 37.9875C38.2925 37.3075 37.8525 36.3925 37.3325 35.75C37.18 35.5625 36.78 35.1625 36.5325 34.95L36.4 34.8375L36.99 33.8C38.7575 30.6875 38.9125 30.4325 39.15 30.2175C39.385 30.005 39.6975 29.945 39.9925 30.055C40.1875 30.125 40.455 30.395 40.57 30.6275C40.81 31.12 40.775 31.54 40.4125 32.545C40.1225 33.3575 40.06 33.695 40.0825 34.345C40.1025 34.9875 40.235 35.5225 40.525 36.1225C40.8975 36.89 41.4225 37.5025 42.095 37.9525C42.4025 38.16 42.6825 38.295 43.0425 38.415C43.4925 38.5675 43.7225 38.535 43.8875 38.3025L43.9625 38.195L43.9575 37.605C43.9475 35.9575 43.5375 34.235 42.7775 32.6625C42.52 32.13 42.3025 31.75 41.9625 31.2375C41.6175 30.72 41.355 30.3825 40.8225 29.775C40.335 29.2175 40.135 28.9425 39.9725 28.6125C39.8075 28.2725 39.75 28.02 39.75 27.625C39.75 27.225 39.79 26.9925 39.985 26.2175C40.245 25.2 40.3375 24.635 40.3725 23.87C40.4275 22.6175 40.2475 21.47 39.775 20.095C39.6925 19.8525 39.455 19.23 39.2475 18.7075C38.3375 16.425 38.22 15.9275 38.1125 13.875C38.0525 12.695 38.005 12.165 37.9225 11.675C37.725 10.4975 37.295 9.57 36.6525 8.9225C36.19 8.46 35.71 8.1925 35.095 8.06C34.92 8.0225 34.28 7.9925 34.15 8.015ZM34.925 8.9875C35.97 9.3725 36.835 10.6975 37.1975 12.465C37.4675 13.785 37.41 15.06 37.025 16.185C36.9425 16.4325 36.93 16.575 36.9875 16.685C37.0075 16.7225 37.13 16.8975 37.26 17.0725C38.67 18.9775 39.115 20.08 39.385 22.35C39.5375 23.6275 39.52 24.75 39.3225 26.175C39.21 26.9875 38.985 27.935 38.835 28.2275C38.8175 28.265 38.71 28.5625 38.5975 28.89C38.4875 29.2175 38.34 29.61 38.2725 29.7625C37.7875 30.845 37.0225 31.755 35.9175 32.5575C35.3325 32.985 34.8 33.285 33.71 33.8025C31.0875 35.0475 30.01 35.425 28.715 35.5525C28.2775 35.595 27.305 35.5675 26.875 35.5025C25.95 35.3575 24.895 35.05 23.7625 34.595C22.6175 34.135 21.44 33.5475 21.335 33.3875C21.275 33.295 21.3075 33.22 21.4725 33.0775C21.555 33.005 21.68 32.8675 21.7525 32.7675C21.825 32.6675 21.935 32.52 21.995 32.4375C22.13 32.2575 22.2575 31.9925 22.3125 31.7875C22.37 31.5775 22.3875 31.06 22.3525 30.76C22.3075 30.4075 22.2175 29.9975 22.0625 29.445C21.7575 28.3475 21.5175 27.825 21.0975 27.325C21.0225 27.235 20.905 27.09 20.8375 27C20.7675 26.91 20.6425 26.76 20.5575 26.6675C20.3175 26.405 20.3175 26.3525 20.56 26.0725C20.6475 25.97 20.81 25.7825 20.9225 25.6525C21.47 25.0175 21.895 24.3675 22.61 23.0675C23.3025 21.8125 23.55 20.8925 23.7225 18.9375C23.8225 17.8275 23.815 17.36 23.69 16.865C23.58 16.435 23.2825 15.77 23.085 15.51C22.9625 15.35 22.925 15.265 22.925 15.1375C22.925 15.035 22.9375 15.01 23.0375 14.9025C23.275 14.6475 23.7275 14.4825 25.075 14.155C26.025 13.9225 27.32 13.7125 28.0125 13.6775C28.2675 13.665 28.3875 13.6475 28.455 13.615C28.625 13.5325 28.925 13.185 29.2625 12.68C29.44 12.415 29.675 12.0875 29.785 11.955C30.045 11.6425 30.7375 10.9375 31.055 10.655C31.955 9.865 33.2575 9.1025 33.9925 8.94C34.265 8.8775 34.69 8.9 34.925 8.9875ZM15.88 14.1875C16.2 14.2425 16.53 14.36 16.875 14.5425C17.9725 15.12 18.46 15.6775 18.6 16.525C18.68 16.995 18.525 17.4875 18.14 18C17.8325 18.41 17.085 19.065 16.725 19.2425C16.2925 19.455 15.9675 19.2675 15.545 18.56C15.18 17.9475 14.9075 17.35 14.74 16.7925C14.63 16.43 14.435 15.5625 14.4 15.29C14.3275 14.7075 14.6 14.275 15.1 14.1775C15.28 14.1425 15.65 14.1475 15.88 14.1875Z" fill="black"/>
<path d="M34.1275 10.4275C33.95 10.4575 33.5875 10.58 33.4075 10.6725C32.76 11 32.07 11.65 31.4925 12.4825C31.15 12.9725 31.025 13.2525 31.025 13.53C31.025 13.86 31.1975 14.045 31.7125 14.2625C31.8375 14.315 32.3425 14.56 32.835 14.8075C33.33 15.0525 33.8025 15.2825 33.885 15.3125C34.3275 15.4775 34.74 15.4925 35.0375 15.355C35.59 15.095 35.8775 14.32 35.8425 13.175C35.8275 12.7 35.79 12.44 35.6275 11.7125C35.5175 11.2225 35.49 11.125 35.3875 10.9275C35.175 10.5075 34.725 10.33 34.1275 10.4275ZM34.2875 11.2825C34.4475 11.45 34.54 11.7375 34.735 12.65C34.8525 13.2075 34.9025 13.6325 34.9075 14.115C34.9125 14.48 34.9075 14.525 34.865 14.5725C34.7725 14.675 34.58 14.6325 34.0275 14.3975C33.5025 14.1725 33.0725 13.915 32.5875 13.5375C32.18 13.22 32.1025 13.0675 32.2325 12.8275C32.325 12.6525 32.8725 11.9525 33.1075 11.7075C33.4525 11.35 33.7575 11.1775 34.0475 11.175C34.175 11.175 34.19 11.1825 34.2875 11.2825Z" fill="black"/>
<path d="M34.24 22.3125C34.1575 22.345 33.965 22.4575 33.815 22.5575C33.6625 22.66 33.44 22.8075 33.3225 22.885C33.0775 23.0425 32.86 23.265 32.7725 23.4425C32.685 23.6225 32.6775 23.8775 32.755 24.0225C32.845 24.1925 32.9725 24.28 33.1375 24.295C33.27 24.305 33.28 24.3025 33.36 24.215C33.4175 24.155 33.48 24.035 33.55 23.8575C33.7225 23.4075 33.8475 23.2575 34.2 23.0925C34.4825 22.9575 34.6425 22.9875 34.935 23.23C35.015 23.2975 35.1175 23.37 35.16 23.395C35.265 23.45 35.5125 23.45 35.62 23.3925C35.7925 23.3 35.85 23.07 35.7525 22.8775C35.6775 22.7325 35.445 22.535 35.215 22.425C34.825 22.2375 34.51 22.2 34.24 22.3125Z" fill="black"/>
<path d="M37.0125 24.7125C36.68 24.77 35.875 25.035 35.595 25.1775C35.4775 25.2375 35.4 25.3375 35.4 25.43C35.4 25.5275 35.48 25.68 35.575 25.76C35.7025 25.865 35.8225 25.85 36.1575 25.6875C36.4025 25.5675 36.4725 25.545 36.7125 25.51C36.9275 25.48 37.0275 25.45 37.1725 25.38C37.385 25.2725 37.4025 25.2425 37.41 24.9825C37.4125 24.8325 37.405 24.795 37.3625 24.755C37.2925 24.685 37.2125 24.6775 37.0125 24.7125Z" fill="black"/>
<path d="M24.4 25.34C24.365 25.345 24.27 25.3625 24.1875 25.3775C23.83 25.44 23.465 25.705 23.215 26.0825C22.85 26.6375 22.8225 26.855 23.1 27.0425C23.21 27.12 23.365 27.1175 23.4775 27.0425C23.53 27.0075 23.6 26.9175 23.6625 26.8C23.7925 26.5575 24.1275 26.21 24.3275 26.115C24.615 25.9775 24.8675 25.9825 25.275 26.1375C25.5475 26.24 25.675 26.2475 25.8275 26.1675C26.0375 26.055 26.0525 25.895 25.8725 25.69C25.72 25.515 25.59 25.4625 25.15 25.39C24.9175 25.35 24.4975 25.3225 24.4 25.34Z" fill="black"/>
<path d="M37.1125 26.2175C36.2824 26.4425 36.2724 26.4475 36.1849 26.5375C36.0999 26.63 36.0624 26.755 36.0999 26.825C36.1124 26.85 36.1599 26.8825 36.2024 26.8975C36.3475 26.9475 36.4875 26.93 36.7675 26.8225C37.015 26.7275 37.06 26.72 37.325 26.71C37.69 26.6975 37.935 26.6575 37.9825 26.605C38.0825 26.4925 38.0625 26.2925 37.9375 26.1625C37.865 26.085 37.8425 26.075 37.735 26.0775C37.6675 26.08 37.3875 26.1425 37.1125 26.2175Z" fill="black"/>
<path d="M30.1575 26.3125C29.505 26.43 28.925 26.8 28.6 27.3025C28.4425 27.5475 28.4075 27.7675 28.4975 27.9625C28.6025 28.1875 28.8275 28.3175 29.2925 28.415C29.96 28.555 30.0825 28.6 30.1225 28.7075C30.17 28.83 30.2775 29.68 30.2775 29.9325C30.2775 30.1725 30.2675 30.225 30.185 30.475C30.04 30.915 29.8775 31.12 29.57 31.2625C29.0875 31.4825 28.4875 31.3325 27.98 30.865C27.8525 30.75 27.71 30.64 27.6625 30.625C27.53 30.58 27.4175 30.645 27.335 30.815C27.2775 30.935 27.27 30.9725 27.28 31.125C27.3 31.4075 27.46 31.615 27.7875 31.78C28.1825 31.9825 28.605 32.0625 29.1475 32.0425C29.8625 32.0175 30.225 31.835 30.455 31.3925C30.6475 31.0225 30.8525 30.8025 31.06 30.7475C31.15 30.7225 31.1825 30.725 31.325 30.7775C31.4725 30.8325 31.535 30.8375 31.975 30.845C32.2425 30.85 32.6075 30.8425 32.785 30.8275C33.175 30.795 33.295 30.7475 33.5225 30.535C33.61 30.455 33.79 30.2975 33.92 30.1875C34.2375 29.9225 34.265 29.8675 34.33 29.36C34.36 29.13 34.3725 28.9225 34.3625 28.8575C34.3425 28.72 34.235 28.5925 34.105 28.555C33.9725 28.515 33.7175 28.5175 33.6175 28.56C33.4625 28.625 33.4425 28.6725 33.4225 29.0075C33.4 29.3475 33.33 29.6625 33.2475 29.78C33.1725 29.885 32.995 29.9925 32.7875 30.0575C32.565 30.1275 32.1225 30.1325 31.875 30.0675C31.4975 29.9675 31.1975 29.7475 31.115 29.5125C31.095 29.4475 31.065 29.28 31.0475 29.14C30.995 28.6675 31.0725 28.3475 31.37 27.805C31.66 27.2825 31.7075 27.1675 31.72 26.9525C31.7275 26.775 31.725 26.755 31.655 26.645C31.51 26.42 31.09 26.275 30.6 26.2775C30.455 26.2775 30.2575 26.295 30.1575 26.3125Z" fill="black"/>
<path d="M36.57 28.1525C36.46 28.185 36.35 28.3025 36.35 28.39C36.35 28.49 36.4125 28.61 36.5025 28.685C36.5825 28.7525 36.5925 28.755 36.75 28.735C37.105 28.69 37.2 28.705 37.455 28.8325C37.71 28.96 37.805 28.975 37.9375 28.91C38.045 28.86 38.275 28.6175 38.275 28.555C38.275 28.415 38.0275 28.2775 37.6325 28.1975C37.345 28.14 36.71 28.1125 36.57 28.1525Z" fill="black"/>
<path d="M24.1375 28.4775C23.71 28.625 23.1775 28.9475 22.9425 29.2C22.8025 29.35 22.7275 29.5075 22.7575 29.585C22.785 29.6575 22.9 29.6825 23.0425 29.655C23.2125 29.62 24.305 29.165 24.4575 29.065C24.6275 28.9525 24.6475 28.645 24.495 28.48C24.4275 28.41 24.335 28.41 24.1375 28.4775Z" fill="black"/>
<path d="M24.075 30.0675C24.04 30.0725 23.925 30.105 23.82 30.14C23.3325 30.3 22.97 30.7025 23.05 30.9975C23.085 31.1275 23.205 31.2675 23.3025 31.2875C23.41 31.3125 23.615 31.205 23.765 31.0475C23.8325 30.9775 23.91 30.9075 23.9375 30.8925C23.9675 30.8775 24.115 30.865 24.2875 30.8625C24.5475 30.8625 24.6025 30.8525 24.6925 30.805C24.8675 30.7125 24.9125 30.5725 24.8275 30.3875C24.7125 30.1325 24.4225 30.01 24.075 30.0675Z" fill="black"/>
<path d="M24.3875 31.6725C24.2725 31.725 24.1225 31.865 23.82 32.21C23.5275 32.5375 23.49 32.6875 23.655 32.85C23.8775 33.0725 24.3075 32.9525 24.54 32.6C24.6275 32.47 24.6925 32.4325 24.9 32.3875C25.2475 32.315 25.35 32.2325 25.35 32.0225C25.35 31.88 25.305 31.8225 25.1375 31.75C25.02 31.7 24.6675 31.625 24.5525 31.625C24.5175 31.625 24.4425 31.6475 24.3875 31.6725Z" fill="black"/>
<path d="M19.5075 28.8125C19.4225 28.85 19.415 28.87 19.425 29.05C19.4375 29.285 19.6025 29.58 19.875 29.85C20.09 30.0675 20.2575 30.1625 20.3775 30.1375C20.4825 30.115 20.615 29.99 20.65 29.8875C20.6875 29.7725 20.6575 29.68 20.5025 29.445C20.265 29.0825 20.0475 28.895 19.7775 28.815C19.615 28.7675 19.61 28.7675 19.5075 28.8125Z" fill="black"/>
<path d="M17.8525 29.515C17.82 29.5375 17.78 29.595 17.76 29.64C17.6975 29.79 17.7125 29.835 17.8775 29.98C18.0525 30.13 18.125 30.245 18.21 30.4925C18.3225 30.82 18.4125 30.89 18.68 30.86C18.8875 30.8375 18.935 30.7875 18.9175 30.615C18.8925 30.38 18.785 30.1425 18.6225 29.965C18.3775 29.6975 18.0675 29.475 17.945 29.475C17.925 29.475 17.885 29.4925 17.8525 29.515Z" fill="black"/>
<path d="M16.21 30.3125C16.145 30.4125 16.175 30.5725 16.295 30.755C16.435 30.9725 16.5125 31.1475 16.585 31.4225C16.62 31.5525 16.6675 31.6775 16.6875 31.6975C16.7125 31.7225 16.77 31.7375 16.84 31.7375C16.94 31.7375 16.965 31.725 17.0375 31.6475C17.245 31.42 17.1325 30.9225 16.7875 30.5525C16.5175 30.265 16.3 30.175 16.21 30.3125Z" fill="black"/>
</g>
<path d="M55.982 25.916C55.982 23.65 56.774 21.912 58.138 21.912C59.194 21.912 59.546 22.792 59.546 24.068C59.546 24.464 59.524 24.838 59.458 25.322H61.548C62.032 25.102 62.516 24.552 62.516 23.716C62.516 21.78 60.712 20.922 58.49 20.922C54.838 20.922 52.462 23.716 52.462 27.434C52.462 31.042 54.816 33.22 57.874 33.22C60.338 33.22 62.12 32.01 62.846 29.326L62.362 29.018C61.658 30.03 60.734 30.47 59.436 30.47C57.236 30.47 55.982 28.732 55.982 25.916ZM69.0438 31.042C67.9438 31.042 67.5258 30.206 67.5258 29.084C67.5258 27.83 68.0318 27.412 68.8018 27.126L70.0118 26.664V30.734C69.6598 30.932 69.3958 31.042 69.0438 31.042ZM74.0158 24.75C74.0158 21.89 72.1678 20.922 69.0878 20.922C66.4258 20.922 64.3578 21.846 64.3578 23.848C64.3578 24.64 64.7978 25.168 65.4358 25.388L67.8778 25.058C67.7678 24.53 67.6798 24.024 67.6798 23.518C67.6798 22.484 68.0098 21.78 68.8678 21.78C69.7258 21.78 70.0118 22.462 70.0118 23.474V25.718L66.5138 26.95C64.9518 27.5 63.6098 28.292 63.6098 30.206C63.6098 32.098 64.9078 33.154 66.7558 33.154C68.3838 33.154 69.4398 32.296 70.0778 31.372C70.4078 32.538 71.3318 33.22 72.6078 33.22C73.8398 33.22 74.7858 32.758 75.5118 32.032L75.3578 31.438C75.2038 31.504 74.9178 31.57 74.6098 31.57C74.0818 31.57 74.0158 31.108 74.0158 30.58V24.75ZM80.8735 18.15H80.0155C78.8715 19.668 77.2875 20.944 75.5275 21.604V22.33H76.7815V29.612C76.7815 32.208 78.1895 33.22 80.2135 33.22C81.9735 33.22 83.2055 32.428 84.0415 31.064L83.7115 30.58C83.1835 30.932 82.6995 31.13 82.1275 31.13C81.2915 31.13 80.8735 30.668 80.8735 29.612V22.33H83.4475V21.142H80.8735V18.15ZM84.7362 30.954C84.7362 32.296 85.7482 33.22 87.0022 33.22C88.2782 33.22 89.2682 32.296 89.2682 30.954C89.2682 29.612 88.2782 28.666 87.0022 28.666C85.7482 28.666 84.7362 29.612 84.7362 30.954ZM95.6179 15.774H94.9359L90.3379 16.786V17.446L91.5479 18.062V31.284C91.5479 31.988 91.1959 32.076 90.3159 32.142V33H96.8499V32.142C95.9699 32.076 95.6179 31.988 95.6179 31.284V15.774ZM105.021 28.996L102.711 23.386C102.623 23.122 102.557 22.968 102.557 22.77C102.557 22.286 102.843 22.154 104.009 22V21.142H96.9694V22C97.7394 22.242 97.8714 22.396 98.0914 22.88L103.107 33.55L102.755 34.32C102.359 35.244 101.721 35.596 100.489 35.596C99.8074 35.596 99.3454 35.486 98.7734 35.376V36.938C99.0814 37.51 99.7634 37.862 100.621 37.862C102.161 37.862 102.975 36.85 103.789 34.914L108.805 22.88C109.003 22.396 109.179 22.242 109.927 22V21.142H105.923V22C107.067 22.154 107.375 22.286 107.375 22.77C107.375 22.968 107.309 23.122 107.199 23.408L105.021 28.996Z" fill="black"/>
<defs>
<clipPath id="clip0">
<rect width="31.975" height="32" fill="white" transform="translate(12 8)"/>
</clipPath>
</defs>
</svg>
