<svg width="256" height="48" viewBox="0 0 256 48" fill="none" xmlns="http://www.w3.org/2000/svg">
<rect width="256" height="48" fill="#005F93"/>
<path fill-rule="evenodd" clip-rule="evenodd" d="M86.2707 27.1792L84.9155 21.9685L83.6165 27.1792H86.2707ZM88.4193 16.647C87.8576 17.4539 87.0712 18.1217 86.046 18.1217C85.5824 18.1217 85.4631 18.0659 84.3747 17.6488C84.115 17.5514 83.7707 17.4193 83.4757 17.4193C83.0897 17.4193 82.907 17.586 82.4646 18.0105L81.5797 17.3773C82.5492 16.2504 83.1952 16 83.8553 16C84.3401 16 84.4593 16.0558 85.6039 16.4799C85.927 16.612 86.2079 16.7095 86.5099 16.7095C86.9311 16.7095 87.1908 16.3825 87.4928 16.0208L88.4197 16.647H88.4193ZM86.6711 19.2348L90.491 32H87.4925L86.8115 29.3775H83.0477L82.3873 32H79.6703L83.6937 19.2348H86.6714H86.6711ZM93.63 25.4329C93.63 28.174 93.9108 29.7183 95.3997 29.7183C96.9094 29.7183 97.1694 28.132 97.1694 25.4329C97.1694 22.7546 96.9302 21.127 95.3997 21.127C93.9108 21.127 93.63 22.6572 93.63 25.4329ZM100.266 25.4329C100.266 27.7701 99.8236 32 95.3994 32C91.095 32 90.533 27.9999 90.533 25.4329C90.533 22.9842 91.0319 18.852 95.3997 18.852C99.662 18.852 100.266 22.7755 100.266 25.4329ZM65.4922 27.1792L64.1438 21.9685L62.8377 27.1792H65.4922ZM65.8923 19.2348L69.7125 32H66.7211L66.0327 29.3775H62.276L61.6091 32H58.8915L62.9149 19.2348H65.8923ZM73.5748 29.7946H74.0803C75.246 29.7946 76.8961 29.6625 76.8961 25.4887C76.8961 21.5652 75.2669 21.4331 74.0803 21.4331H73.5748V29.7946ZM70.6391 19.2348H73.7992C75.8494 19.2348 80.0136 19.2486 80.0136 25.5304C80.0136 27.9233 79.2692 30.0658 77.8156 31.1164C76.6358 32 75.1826 32 74.1573 32H70.6391V19.2348ZM60.5201 19.2348V21.6277H57.7886V32H54.8532V21.6277H52.1778V19.2348H60.5201ZM30.6835 24.1181C30.6764 24.5147 30.5219 24.8834 30.283 25.1755L30.2689 25.1825C30.3533 24.9183 30.4658 24.466 30.4658 24.4173V23.9027C30.4658 23.652 30.2199 23.0538 30.1356 22.8521L30.1426 22.8592L30.1567 22.8729C30.2901 22.998 30.4023 23.1512 30.4937 23.3183L30.5078 23.3529C30.6062 23.5407 30.6623 23.7495 30.6764 23.9652L30.6835 24.0902V24.1181ZM21.9126 21.3844C21.8914 21.3774 21.8706 21.3565 21.8424 21.3216C21.7969 21.2531 21.7571 21.181 21.7231 21.1061C21.7231 20.9737 22.011 20.9875 22.0742 20.9391C22.1373 20.8904 22.1655 20.8208 22.2636 20.7788V20.7929L22.2707 20.8833C22.2506 20.97 22.2413 21.0588 22.2428 21.1478C22.2428 21.2728 22.2636 21.4469 22.2848 21.4886C22.2848 21.4886 22.1444 21.5444 22.1303 21.5582C22.0533 21.4886 21.9969 21.419 21.9126 21.3844ZM21.9408 20.3479L23.0853 19.1027L23.8227 19.701L23.7945 19.7914C23.767 19.853 23.7366 19.9134 23.7034 19.9722C23.6682 20.0347 23.6262 20.0905 23.5839 20.153C23.5315 20.2167 23.4751 20.2771 23.4152 20.3338L23.3873 20.3617C23.2254 20.5074 23.0372 20.6207 22.8327 20.6958C22.699 20.7375 22.573 20.765 22.4534 20.765L21.9405 20.3479H21.9408ZM22.4954 18.2887V17.9617C22.4954 17.9059 22.5095 17.8784 22.5307 17.8575C22.5727 17.8364 22.615 17.8088 22.65 17.7806L22.6852 17.746C22.7692 17.7601 22.8465 17.753 22.9238 17.7184C22.952 17.7113 23.0081 17.6835 23.036 17.6626C23.0783 17.6277 23.0924 17.5793 23.0994 17.5235L23.2116 17.5164V17.7322L23.2046 17.7601C23.1908 17.8018 23.1838 17.8434 23.1838 17.8851C23.1838 17.9896 23.219 18.0938 23.2819 18.1704C23.3732 18.3025 23.5278 18.3862 23.7034 18.3929C23.7172 18.4417 23.7102 18.5253 23.7034 18.5808C23.6964 18.6366 23.6329 18.7895 23.6121 18.8729C23.5627 19.0261 23.5137 19.179 23.5207 19.339L23.3521 19.1999L23.4643 18.7966L23.5419 18.5253C23.3383 18.4766 23.1697 18.3583 23.0853 18.2121C22.9799 18.24 22.8327 18.2887 22.7904 18.2887H22.4954ZM22.0742 17.8643C22.0251 17.8226 22.0389 17.7184 22.1232 17.5305C22.1514 17.4956 22.2005 17.4472 22.2287 17.4193C22.2989 17.4539 22.3268 17.4539 22.348 17.4677C22.3691 17.5026 22.3832 17.5305 22.4041 17.551C22.4182 17.5722 22.4605 17.5652 22.4746 17.5722C22.5095 17.6626 22.5656 17.6835 22.5868 17.7113C22.5727 17.7392 22.4182 17.8226 22.3621 17.8434C22.306 17.8643 22.1162 17.9059 22.0742 17.8643ZM21.8562 17.1198C21.6459 16.9948 21.4702 16.8419 21.3509 16.6749C21.3862 16.6607 21.4211 16.647 21.4561 16.6261C21.5266 16.5912 21.5898 16.5357 21.66 16.4799C21.7161 16.4245 21.7651 16.3687 21.8004 16.3132C21.8985 16.5633 22.0883 16.814 22.348 17.0294L22.3201 17.099V17.1269C22.3071 17.1863 22.3047 17.2475 22.313 17.3077C22.1529 17.2665 21.9993 17.2032 21.8565 17.1198H21.8562ZM21.2881 16.5707L21.281 16.5639C21.281 16.5639 21.274 16.5569 21.274 16.5428C21.2669 16.4944 21.3371 16.3828 21.4497 16.2786C21.4972 16.2344 21.5488 16.1947 21.6039 16.1603C21.6673 16.1186 21.7161 16.1045 21.7375 16.1186H21.7513L21.7584 16.1324C21.7584 16.1465 21.7584 16.1603 21.7513 16.1741C21.7375 16.2299 21.6744 16.3203 21.583 16.4107C21.4634 16.5293 21.3301 16.5986 21.2881 16.571V16.5707ZM22.4817 17.0506L22.7695 17.0718C22.7695 17.0718 22.91 17.1689 22.9241 17.2526C22.9311 17.2872 22.9241 17.3984 22.9241 17.4263L22.4746 17.4334C22.3835 17.2455 22.4326 17.1064 22.4817 17.0506ZM22.7978 17.6491C22.5589 17.6629 22.5733 17.5305 22.5733 17.5305L22.9805 17.5238C22.9805 17.5238 23.0366 17.635 22.7978 17.6488V17.6491ZM23.3877 17.1759C23.4229 17.1413 23.4646 17.1134 23.514 17.0855C23.563 17.1272 23.6336 17.1897 23.6967 17.2385L23.7038 17.2455C23.7317 17.2664 23.7599 17.2872 23.7807 17.2942C23.8273 17.2506 23.8613 17.1952 23.8791 17.1339L23.8862 17.0923C23.8862 17.0368 23.858 17.0089 23.823 16.9951C23.7878 16.9743 23.7387 16.9602 23.6826 16.9326C23.6826 16.9047 23.6614 16.8698 23.6403 16.8422C23.6614 16.7794 23.7176 16.7031 23.7176 16.7031L23.8371 16.6335C23.9003 16.5986 23.9564 16.5707 23.9776 16.5501C23.9776 16.6264 23.9705 16.6752 23.9705 16.7306V16.7447L23.9634 16.8422V17.016H24.0689V16.863L24.0757 16.7656L24.1109 16.3828L24.1529 16.3761L24.2302 16.362H24.2443L24.3074 16.369C24.3145 16.3828 24.2654 16.6402 24.2513 16.689L24.2023 17.0089V17.016H24.3004L24.3074 17.023C24.3286 16.898 24.3498 16.7864 24.378 16.6681C24.4059 16.5639 24.4338 16.4661 24.462 16.369C24.5533 16.3828 24.6656 16.404 24.7428 16.4386L24.7499 16.4456C24.813 16.4735 24.8695 16.5011 24.9185 16.5428L24.9464 16.5639C24.9817 16.5986 25.0169 16.6402 25.0448 16.6752L25.1641 16.8419C25.1782 16.863 25.1782 16.8977 25.1993 16.9326L25.2135 16.9881L25.2276 17.0506V17.0576L25.2064 17.0647L25.115 17.0855C25.0294 17.1021 24.9425 17.1114 24.8553 17.1134H24.8342L24.7149 17.1064L24.7079 17.1134C24.6751 17.2375 24.6096 17.3505 24.5181 17.4404C24.4411 17.5238 24.3498 17.5863 24.2654 17.6213L24.1949 17.6491L24.1532 17.6559L24.16 17.7187V17.8091L24.0757 17.8229V17.7396L24.0689 17.7046V17.4959L24.0619 17.3917V17.301H23.9634V17.3914L23.9423 17.4193L23.823 17.5443L23.7948 17.5793L23.7878 17.586L23.774 17.6001L23.6967 17.6972C23.6652 17.6781 23.6347 17.6572 23.6053 17.6347L23.5422 17.5652L23.514 17.5235L23.4861 17.4747L23.472 17.4331L23.4649 17.4193L23.4297 17.3423C23.4221 17.3215 23.4101 17.3026 23.3944 17.2869C23.3796 17.2713 23.3631 17.2573 23.3453 17.2452C23.3541 17.2192 23.3686 17.1954 23.3877 17.1756V17.1759ZM24.7851 20.689L24.8483 20.6265L24.8836 20.5848L24.8903 20.5707L25.2696 20.8769L24.1109 22.1359L24.0689 22.0942L23.3877 21.5377C23.6087 21.4705 23.8227 21.3819 24.0266 21.2732C24.2669 21.1344 24.4906 20.9687 24.6934 20.7794L24.7079 20.7653L24.7499 20.7169L24.7851 20.689ZM25.6065 21.1411L25.6136 21.1481L25.2696 21.4123L24.4338 22.0734L24.3706 22.0038L25.2276 21.0645L25.2484 21.0436L25.2555 21.0369L25.3468 20.9324L25.6065 21.1411ZM25.6418 21.5931H25.6277L24.8762 21.8717L24.8201 21.8993L25.5084 21.3639L25.5437 21.336L25.6418 21.5934V21.5931ZM30.8659 26.5114C30.9012 26.3864 30.929 26.2543 30.9573 26.1498L31.189 25.3637L31.5189 24.2647C31.5609 24.1185 31.5821 23.9655 31.5821 23.8126C31.5821 22.9149 30.8377 22.1846 29.9182 22.1846C29.8336 22.1846 29.7563 22.1917 29.679 22.2055C29.6247 22.2001 29.5708 22.1908 29.5178 22.1776L29.4405 22.1567L29.3841 22.1359L29.2719 22.0942L29.0891 22.0109C28.7883 21.8821 28.472 21.7932 28.1482 21.7464C27.9665 21.7243 27.7837 21.7127 27.6006 21.7114C27.3688 21.7114 27.1511 21.7326 26.9338 21.7672C26.6964 21.8076 26.4635 21.8705 26.2381 21.9551C26.1118 21.9968 26.0066 22.0246 25.9784 22.0246C25.8309 22.0246 25.8168 21.8785 25.6414 21.8785C25.5853 21.8785 25.4728 21.9342 25.3956 21.9618L25.4238 21.9971C25.7328 22.4837 25.9854 23.0541 26.1541 23.6802L26.1611 23.7152L26.182 23.7985L23.7945 24.7379L23.3662 23.7219C23.3662 23.7219 22.9238 24.021 22.6993 24.1534C22.7061 24.2717 22.7061 24.4593 22.692 24.6821C22.6567 25.3778 22.5236 26.4005 22.4884 26.7201C22.4531 26.7618 22.4252 26.797 22.3691 26.797C22.3201 26.797 21.7023 26.7342 21.5333 26.5117L21.6318 24.9953L21.709 23.8819L22.5233 21.9897L22.657 21.698L22.8959 22.2542L23.8788 24.5567L26.0066 23.736V23.7219L25.9996 23.7152L25.9925 23.6873C25.8326 23.0624 25.5717 22.4678 25.2199 21.9272L25.2061 21.8855C25.2061 21.8438 25.199 21.8506 25.2131 21.8368L25.7678 21.6348L25.6273 21.2732L25.7678 21.1619L25.7258 21.1273L25.5924 21.016L25.3744 20.842L25.1147 20.6336L24.9954 20.5358L24.9531 20.5082L25.0096 20.4316L25.1288 20.2649C25.2202 20.1395 25.2974 20.0071 25.3606 19.868C25.4026 19.7846 25.4375 19.6942 25.4658 19.6109C25.4799 19.5692 25.494 19.5275 25.494 19.5134C25.5292 19.4022 25.5501 19.2906 25.5642 19.1794C25.5783 19.1168 25.5783 19.0473 25.5783 18.9848V18.9569C25.5783 18.8318 25.543 18.7132 25.4728 18.609C25.4517 18.5741 25.4308 18.5394 25.3959 18.5045L25.3814 18.4978C25.3616 18.4712 25.338 18.4477 25.3112 18.4282C25.2634 18.3868 25.2089 18.3538 25.15 18.3307C25.1139 18.305 25.0733 18.2861 25.0304 18.275L25.0233 18.1637L24.9531 18.1778C24.8892 18.1908 24.8259 18.207 24.7637 18.2265H24.7495C24.7707 18.1079 24.9111 18.0874 24.9602 18.0178C24.9743 18.0108 24.9813 17.9899 24.9813 17.9762C24.9813 17.955 24.9743 17.9409 24.9672 17.9345C24.9531 17.9063 24.9393 17.8925 24.9393 17.8575L24.9461 17.8229C24.9531 17.8091 24.9602 17.8021 24.9672 17.795L24.9954 17.7742L25.0307 17.7533L25.0724 17.7117C25.192 17.5934 25.2763 17.4404 25.3112 17.2805L25.3183 17.2388L25.3253 17.1897C25.3323 17.1344 25.3323 17.0784 25.3253 17.023L25.3112 16.9743C25.276 16.7864 25.1779 16.6335 25.0304 16.5081C24.9951 16.4803 24.9534 16.4456 24.9041 16.4248L24.897 16.4107C24.848 16.3898 24.7848 16.3552 24.7284 16.3411L24.7005 16.3273L24.6793 16.3203C24.6303 16.3062 24.5742 16.2991 24.5181 16.2853C24.4693 16.2772 24.42 16.2725 24.3706 16.2712L24.2725 16.2783H24.2302L24.2023 16.2853L24.118 16.2783H24.0266L23.9984 16.3129L23.9917 16.327L23.9282 16.4453L23.9214 16.452L23.8932 16.4799C23.8089 16.5566 23.6685 16.5774 23.6403 16.647L23.4861 16.9531C23.4861 16.9531 23.2331 17.2314 23.2331 17.2452C23.2331 17.2939 23.2402 17.3218 23.1979 17.3564L23.0504 17.3077C23.0437 17.2869 23.0437 17.2106 23.0366 17.1894C23.0296 17.1827 22.8539 16.9599 22.7625 16.9669L22.4259 16.939C22.1094 16.689 21.9411 16.3966 21.8776 16.0904V16.0769L21.8709 16.0628L21.8498 16.0282C21.8215 16.0003 21.7795 15.9933 21.7234 16.0074C21.6741 16.0152 21.6266 16.0317 21.583 16.0561C21.5076 16.0995 21.437 16.1507 21.3724 16.209L21.316 16.2648C21.2807 16.3132 21.239 16.362 21.2179 16.404C21.1547 16.5011 21.1406 16.5848 21.1685 16.6402L21.1755 16.6473C21.3442 16.9464 21.6811 17.2109 22.1165 17.3709L22.1518 17.3847C22.0674 17.468 22.0113 17.5655 21.9831 17.6491H21.5686V18.8103L21.5756 18.8591L21.5827 18.9078L21.5898 18.9424C21.6035 18.9912 21.625 19.0399 21.6529 19.0886L21.6737 19.1165C21.7581 19.2348 21.8985 19.3185 22.053 19.339L22.1373 19.3461H22.7131L21.7792 20.3688C21.7792 20.3688 22.053 20.5913 22.1511 20.6746C22.1444 20.6887 22.046 20.8208 22.011 20.8416C21.9405 20.8766 21.5474 20.9112 21.5756 21.092C21.5827 21.1061 21.5827 21.127 21.5968 21.1549C21.6176 21.2312 21.7161 21.3495 21.7581 21.4049C21.8212 21.4886 21.9549 21.4957 22.004 21.6277C21.9408 21.6694 21.8706 21.7528 21.8565 21.8156C21.709 21.6489 21.3929 21.2591 21.2595 20.9878C20.7819 21.1061 19.6235 21.7323 19.3215 21.8227C19.0686 21.899 18.6611 21.9477 18.6611 21.9477C18.6826 22.0173 18.7316 22.108 18.7246 22.1635C18.7246 22.1914 18.6332 22.2189 18.5281 22.2818C18.4787 22.3026 18.4158 22.3513 18.3735 22.4001C18.4155 22.6921 18.3245 22.9496 18.2613 23.1583C18.2261 23.2416 18.1978 23.325 18.17 23.4157L18.1488 23.4991L18.1068 23.694C18.0927 23.7844 18.0856 23.8678 18.0786 23.9582V24.1807C18.0856 24.2922 18.0997 24.4035 18.1138 24.5077L18.1276 24.5772L18.1488 24.6747C18.1841 24.7997 18.2257 24.9113 18.2681 25.0225L18.2892 25.0572L18.2963 25.0783V25.0851L18.3383 25.0783C18.4088 25.0572 18.4787 25.0225 18.5422 24.9879L18.6685 24.8972C18.7105 24.8696 18.7454 24.8347 18.7877 24.793C18.7172 24.9378 18.6138 25.064 18.4857 25.1617L18.4155 25.2104L18.3594 25.2312C18.3594 25.2312 18.0433 25.3354 17.9802 25.3425C17.7974 25.3842 17.3201 25.447 16.9761 25.565C16.9199 25.5862 16.8215 25.4608 16.5195 25.4887C16.2246 25.5166 15.9931 25.7949 16.0002 25.9895C16.0069 26.1844 16.0912 26.2331 16.1194 26.3444C16.1547 26.4835 16.3862 27.7146 16.4073 27.9304C16.4285 28.0695 16.4285 28.2574 16.4285 28.2644C16.4285 28.2782 16.3791 28.5145 16.372 28.5914V28.6331C16.372 28.6677 16.372 28.7027 16.3791 28.7373C16.4003 28.8976 16.4846 29.0364 16.5971 29.106L16.6038 29.1268L16.6599 29.3076C16.7936 29.6346 16.9761 29.9129 17.1796 30.1146L17.1867 30.1008L17.6432 29.2451L17.6503 29.2381C17.5523 29.0594 17.4267 28.8975 17.2781 28.7581L17.2219 28.7027L17.0745 28.5773L17.0815 28.5424C17.0815 28.3686 17.0043 28.2154 16.8847 28.1041L16.8286 28.0557C16.8286 28.0208 16.7654 26.7409 16.8145 26.2677C16.9129 26.254 17.1937 26.1773 17.3342 26.0728C17.3765 26.0452 18.8301 26.1773 18.8791 26.1844C18.9211 26.1844 19.0407 26.1286 19.125 26.1286L19.3988 26.1494C19.4969 26.1494 19.5953 26.1148 19.6655 26.0661C19.7428 26.0032 19.806 25.9269 19.8271 25.8295L19.8412 25.7599V25.6695L19.8271 25.6208C19.8204 25.5835 19.806 25.548 19.7848 25.5166C19.8632 25.4895 19.9405 25.4593 20.0166 25.4262C20.0871 25.3912 20.157 25.3492 20.2202 25.3076C20.3752 25.1958 20.5085 25.0568 20.6135 24.8972C20.6488 24.8417 20.6841 24.7859 20.712 24.7305C20.6206 25.0921 20.3888 25.3983 20.0727 25.5999L20.0797 25.6903C20.0797 25.7461 20.0727 25.8016 20.066 25.8571C20.0385 25.9766 19.9804 26.087 19.8973 26.1773C19.7989 26.2748 19.6726 26.3581 19.5251 26.3931C19.6444 26.8035 19.897 27.52 19.897 27.5687C19.897 27.7287 20.3045 28.494 20.3045 28.5077C20.3045 28.8277 20.4029 29.1477 20.4379 29.4259C20.452 29.4955 20.459 29.5651 20.459 29.6279C20.459 29.6834 20.4872 30.0104 20.5081 30.539C20.5081 30.5878 20.5292 30.5948 20.5292 30.6503C20.5292 30.692 20.5081 30.7336 20.4802 30.7686L20.4731 30.7824L20.417 30.8519L20.3465 30.9565C20.287 31.0371 20.2353 31.1234 20.1923 31.2139L20.1291 31.346L20.1009 31.4018C20.0187 31.5924 19.9643 31.7939 19.9393 32H21.014C21 31.9384 20.9929 31.8753 20.9928 31.8121C20.9787 31.5964 21.0348 31.353 21.1544 31.1302C21.2175 30.9981 21.2313 30.9286 21.3227 30.8311C21.3086 30.7407 21.3019 30.5737 21.2384 30.3791C21.1823 30.1912 20.9928 29.8853 20.9928 29.8783L20.9223 28.5703C20.9223 28.5148 21.014 28.0624 21.056 27.8262C21.063 27.8121 21.105 27.4158 21.2666 27.1234C21.2878 27.0817 21.1473 26.9493 21.105 26.873L21.1332 26.8522H21.1544C21.2105 26.9009 22.2428 27.2 22.2428 27.2C22.2428 27.2 22.4743 26.9147 22.5656 26.8589C22.994 26.8313 23.4505 26.7756 23.9282 26.6922C24.6303 26.5672 25.2763 26.3931 25.8239 26.1982L26.1259 26.0869L26.14 26.1007V26.1565C26.14 26.2261 26.147 26.2956 26.1541 26.3585C26.182 26.6435 26.2592 26.9009 26.3718 27.1234C26.4208 27.2276 26.484 27.3254 26.5471 27.4087L26.5612 27.4363C26.5156 27.5296 26.4803 27.6277 26.4561 27.7287C26.442 27.7912 26.4349 27.8608 26.4279 27.9233C26.4208 28.0067 26.4208 28.0903 26.4279 28.167C25.6905 29.0294 25.3045 29.6834 25.2128 29.8155L25.2061 29.8225C25.0586 29.8991 24.9464 30.0799 24.9464 30.2954C24.9464 30.3582 24.9602 30.414 24.9743 30.4695C24.9954 30.532 25.0233 30.5945 25.0586 30.6432L25.0233 30.8244C25.0025 30.9494 24.9881 31.0885 24.9954 31.2277V31.2347C25.0096 31.4431 25.0516 31.638 25.1218 31.8189C25.1359 31.8605 25.157 31.8958 25.1779 31.9304L25.9925 31.2764L26.0137 31.2626C25.9779 31.166 25.9332 31.0728 25.8803 30.9844C25.8298 30.8883 25.7735 30.7953 25.7117 30.7061C25.7819 30.6157 25.8732 30.5182 25.8803 30.3582L25.8873 30.2887L25.8803 30.2258C25.8732 30.0658 25.8239 29.9267 25.7537 29.8363C25.8521 29.6625 26.0909 29.3285 26.1682 29.2381C26.2945 29.0714 26.5263 28.8415 26.6385 28.7443C26.7017 28.6886 26.9617 28.6331 27.004 28.6193L27.2566 28.584L27.5445 28.5356L27.5653 28.5286L27.4951 28.3128L27.4881 28.299C27.4811 28.2157 27.4811 28.132 27.4881 28.0487C27.5022 27.9929 27.5163 27.9304 27.5304 27.8819L27.5586 27.8329L27.5936 27.7704L27.6077 27.7566L27.9796 27.2904L27.9587 27.2625L27.9446 27.2488C27.7936 27.0607 27.662 26.8579 27.5516 26.6435C27.4998 26.5376 27.4551 26.4283 27.4179 26.3165C27.3675 26.1759 27.3276 26.0318 27.2986 25.8853L27.2633 25.6766L27.2566 25.6625L27.1162 25.5583C26.9901 25.459 26.8769 25.3445 26.7789 25.2175C26.7228 25.1341 26.6667 25.0504 26.6173 24.96L26.5895 24.9042L26.6247 24.953C26.7819 25.1714 26.9857 25.3521 27.2213 25.482L27.2425 25.4954L27.3057 25.5233L27.4461 25.5929L27.4814 25.7808C27.5022 25.8712 27.5304 25.9616 27.5583 26.052C27.5795 26.1289 27.6077 26.2052 27.6356 26.2815C27.6849 26.4069 27.741 26.5181 27.8042 26.6364C27.8815 26.7685 27.9658 26.8939 28.0571 27.0122L28.1203 27.0955C28.3024 27.3157 28.518 27.5059 28.7592 27.6591C28.8856 27.7354 29.0189 27.812 29.1664 27.8675L29.286 27.9092C29.3139 28.0416 29.4896 28.2224 29.6162 28.3269C29.672 28.3757 29.7775 28.4452 29.8265 28.5077C29.932 28.6745 30.0022 28.8626 30.0445 29.0156C30.1356 29.3076 30.241 29.8504 30.241 29.9059C30.241 29.9546 30.2619 30.1704 30.2619 30.2258C30.2619 30.2746 30.1074 30.7824 30.1074 30.8382L30.1006 30.8519C29.8677 31.0244 29.6837 31.2545 29.5668 31.5197C29.4962 31.6719 29.4489 31.8338 29.4264 32H30.3391C30.3603 31.8609 30.3953 31.7217 30.4514 31.5826C30.5427 31.3389 30.6764 31.1235 30.8239 30.9494C30.8592 30.9077 30.8941 30.8661 30.9361 30.8311C30.9513 30.806 30.9586 30.777 30.9573 30.7478V30.7336C30.9573 30.5878 30.8729 30.3441 30.8168 30.1982C30.7957 30.1425 30.7604 30.087 30.7604 30.0312C30.7604 29.9825 30.6694 28.9322 30.6694 28.8902C30.6902 28.8694 30.8588 28.3407 31.0275 28.1253C30.9643 28.0419 30.9012 27.9861 30.8518 27.9374C30.7184 27.8124 30.6274 27.7495 30.5568 27.527C30.5498 27.4783 30.5078 27.4783 30.5078 27.4225C30.5078 27.3946 30.5148 27.3808 30.5219 27.3738C30.73 27.5248 30.981 27.6053 31.2381 27.6033C31.0835 27.4824 30.966 27.3204 30.8989 27.1359C30.8319 26.9514 30.818 26.7518 30.8588 26.5598L30.8659 26.5111V26.5114ZM42.3612 19.2348V21.4331H37.1509V24.3826H41.1955V26.5806H37.1509V29.725H42.3612V32H34.2155V19.2348H42.3612ZM49.4605 22.7133C49.2992 22.2609 48.9199 21.127 47.5715 21.127C46.5815 21.127 46.1602 21.781 46.1602 22.2955C46.1602 23.1721 47.0451 23.485 48.4775 23.9998C49.9802 24.5564 52.1782 25.3354 52.1782 27.9233C52.1782 30.1008 50.5701 32 47.4099 32C46.4411 32 44.9946 31.8259 43.9132 30.6573C43.1617 29.8366 42.9229 29.0576 42.7613 28.494L45.3386 27.8121C45.5001 28.3827 45.8794 29.7183 47.4872 29.7183C48.4916 29.7183 49.2008 29.1826 49.2008 28.3478C49.2008 27.4437 48.3579 27.0814 47.3468 26.7409C45.521 26.1007 43.3092 25.3566 43.3092 22.7546C43.3092 20.765 44.6502 18.852 47.5927 18.852C50.9282 18.852 51.6303 20.9737 51.9111 21.8156L49.4605 22.7133ZM16.2669 19.457C16.2669 19.5128 16.323 19.9023 16.372 20.1181C16.4285 20.3264 16.9267 21.537 16.9619 21.7387C17.0043 21.9406 16.9761 21.9753 16.9972 22.3231C17.1447 22.3927 17.5028 22.6431 17.6852 22.6431C17.875 22.6431 18.3174 22.2327 18.5069 22.184C18.5069 21.6762 18.3735 21.6274 18.4226 21.3633C18.4787 21.05 18.6406 20.7301 18.7457 20.4797C18.8509 20.2293 18.7736 20.1456 18.7877 20.0693C18.7877 20.0693 18.9073 20.2152 18.8721 20.4447C18.823 20.723 18.5842 21.1475 18.556 21.3354C18.5207 21.5232 18.5351 21.7387 18.6053 21.7804C19.2231 21.7178 19.6867 21.5303 20.0868 21.3145C20.494 21.0988 20.8312 20.925 21.1752 20.7855C21.105 20.5493 20.5924 19.8048 20.3468 19.5195C20.0939 19.2342 19.7781 18.9283 19.3776 18.6988C18.9775 18.4692 18.2751 18.3439 17.7625 18.3926C17.2498 18.4413 16.7513 18.5875 16.7513 18.5875C16.7513 18.5875 16.4285 18.3234 16.1826 18.407L16.3301 18.7757L16.0139 18.9565C16.0139 18.9565 16.2669 19.4086 16.2669 19.4573V19.457Z" fill="white"/>
</svg>
