<svg width="256" height="48" viewBox="0 0 256 48" fill="none" xmlns="http://www.w3.org/2000/svg">
<rect width="256" height="48" fill="#C1161C"/>
<g clip-path="url(#clip0)">
<path d="M16.684 31.5646H25.2171L27.416 31.6274L28.2257 28.1977L27.616 28.0189C27.356 29.04 26.9457 29.732 26.3846 30.0949C25.8234 30.4577 24.7257 30.6389 23.0914 30.6389C22.0669 30.6389 21.4091 30.5194 21.1183 30.2811C20.8269 30.0429 20.6817 29.5023 20.6817 28.6606V24.2206H22.5126C23.5297 24.2206 24.168 24.3486 24.4274 24.6046C24.6869 24.8606 24.8166 25.3989 24.8166 26.2194L25.4377 26.0937L25.3954 24.8411C25.3954 24.6937 25.392 24.4886 25.3851 24.2257C25.3777 23.9629 25.3743 23.7714 25.3743 23.652L25.4371 21.6949L25.4589 21.264H24.8171V21.348C24.8171 22.0703 24.6789 22.5491 24.4017 22.784C24.1246 23.0194 23.4811 23.1366 22.4709 23.1366H20.6823V17.4126H23.0497C24.3051 17.4126 25.1331 17.5863 25.5331 17.9326C25.9331 18.2794 26.1749 18.9371 26.2589 19.9063L26.8166 19.6766V16.5709H18.2097L16 16.5497V17.1914H16.1789C16.9011 17.1914 17.3691 17.276 17.5834 17.444C17.7977 17.6126 17.9046 18.0966 17.9046 18.8966V29.3234C17.9046 30.0114 17.7869 30.4406 17.552 30.6126C17.3166 30.784 16.7994 30.8703 16 30.8703L16.0103 31.628C16.2349 31.5857 16.4594 31.5651 16.684 31.5651V31.5646ZM29.6554 31.5229H32.644L33.928 31.5646V30.8806L33.8651 30.9017L33.8017 30.8806H33.7389C33.1983 30.8806 32.8051 30.8457 32.56 30.7743C32.3354 30.6897 32.2229 30.5589 32.2229 30.3817C32.2351 30.2697 32.2601 30.1595 32.2971 30.0531C32.36 29.9183 32.4309 29.8057 32.508 29.7131L35.7349 25.4377L38.7366 29.6914C38.9189 29.9463 39.036 30.1269 39.0891 30.2331C39.1417 30.3394 39.168 30.4349 39.168 30.52C39.168 30.6474 39.0977 30.7394 38.9571 30.796C38.8171 30.8526 38.5714 30.8806 38.2206 30.8806H37.9366V31.5646C38.0417 31.5646 38.3469 31.5577 38.852 31.544C39.2028 31.5328 39.5536 31.5258 39.9046 31.5229H42.4086L44.3131 31.5646V30.8806H44.1446C43.7371 30.8806 43.3806 30.8011 43.0749 30.6423C42.7691 30.4834 42.4829 30.2166 42.216 29.8411L37.5297 23.2183L40.8469 19.1851L40.92 19.0857C41.4383 18.4617 41.9669 17.9897 42.5063 17.6703C43.0451 17.3514 43.6057 17.1914 44.1869 17.1914V16.4971C44.0988 16.5122 44.0111 16.5298 43.924 16.5497H39.2623L38.5783 16.4971L38.5891 17.1914C38.8691 17.1914 39.1063 17.2074 39.2994 17.2394C39.492 17.2709 39.6623 17.3183 39.8097 17.3811C40.0834 17.4869 40.22 17.6309 40.22 17.8131C40.22 17.9469 40.1743 18.1046 40.084 18.2874C40.0211 18.3926 39.9297 18.5274 39.8109 18.6931C39.692 18.8577 39.6086 18.9754 39.5594 19.0457L36.94 22.4377L34.1977 18.4777L34.1349 18.3829C33.9406 18.0811 33.8434 17.8629 33.8434 17.7291C33.8434 17.5326 33.9069 17.3937 34.0331 17.3131C34.1589 17.232 34.3909 17.1914 34.7274 17.1914H35.18V16.4971L34.6851 16.5234C34.3629 16.5406 34.1309 16.5497 33.9909 16.5497H30.2029L28.4771 16.4971V17.1914C28.8703 17.2269 29.1857 17.2726 29.4246 17.3286C29.712 17.42 29.9206 17.5091 30.0503 17.5971C30.18 17.6846 30.3046 17.8086 30.424 17.9703C30.4663 18.0194 30.5497 18.128 30.6766 18.296C30.8029 18.4646 30.9251 18.6297 31.0446 18.7909L35.2029 24.6286L31.192 29.4709C30.6937 30.0714 30.2606 30.4566 29.8926 30.6263C29.524 30.796 29.0806 30.8806 28.5611 30.8806H28.3931V31.5229H29.656H29.6554ZM49.724 25.1046L51.7891 19.0686L53.8051 25.1029L49.724 25.1046V25.1046ZM45.5526 31.5229H48.3091L49.9823 31.5646V30.9017C49.3366 30.9017 48.8737 30.8423 48.5937 30.7229C48.3269 30.5897 48.1937 30.3823 48.1937 30.1017C48.1937 30.0177 48.2143 29.8943 48.256 29.7331L48.4731 29.0171L49.3989 26.3669L54.2086 26.368L55.1971 29.2617C55.2754 29.4863 55.3286 29.6789 55.3577 29.84C55.3646 29.8823 55.3754 29.9383 55.3903 30.0086C55.404 30.0783 55.4114 30.152 55.4114 30.2291C55.4114 30.4749 55.324 30.648 55.1486 30.7491C54.9731 30.8514 54.6434 30.9017 54.16 30.9017H53.8651V31.5646C53.9491 31.5646 54.2366 31.5577 54.728 31.544C55.0679 31.5329 55.4079 31.5258 55.748 31.5229H58.6314L60.02 31.5646L60.0309 30.9017C59.5394 30.9017 59.1646 30.8103 58.9051 30.628C58.6594 30.432 58.4526 30.0777 58.2846 29.5651L53.6017 16L52.476 16.5486C52.2917 16.6297 52.1057 16.707 51.9183 16.7806C51.7217 16.8583 51.5429 16.9251 51.3817 16.9811L47.4674 28.6086C47.1451 29.5554 46.8189 30.1743 46.4891 30.4657C46.1594 30.7566 45.7 30.9017 45.1109 30.9017L45.1211 31.5646C45.2641 31.5429 45.4081 31.5289 45.5526 31.5229V31.5229ZM61.4069 31.5229H64.448L66.2994 31.6069V30.9229H65.9109C65.2651 30.9229 64.8269 30.8109 64.5954 30.5863C64.364 30.3617 64.248 29.8989 64.248 29.1977L64.2589 28.7131L64.332 27.9977L65.0691 20.1274L70.2137 31.8703L70.8034 31.828L76.2326 19.8434L76.7903 28.808L76.7943 28.8709L76.8326 29.6709C76.8326 30.1691 76.7309 30.5017 76.5274 30.6709C76.324 30.8389 75.9446 30.9229 75.3909 30.9229H75.0017L75.0229 31.5543C75.1417 31.5543 75.3417 31.5486 75.6229 31.5383C75.9029 31.528 76.12 31.5229 76.2743 31.5229H81.5251L81.536 30.9229H81.0103C80.4634 30.9229 80.092 30.7829 79.896 30.5017C79.784 30.3406 79.6977 30.1017 79.6389 29.7869C79.5789 29.4709 79.5491 29.0709 79.5491 28.5869L78.9491 19.6114L78.8949 18.9383L78.884 18.8543C78.884 18.5246 78.9194 18.2543 78.9897 18.044C79.0594 17.8337 79.1646 17.6686 79.3051 17.5497C79.5851 17.3109 80.1114 17.1914 80.8834 17.1914V16.5497C80.5326 16.5851 80.2206 16.6023 79.948 16.6023L78.7703 16.6131L77.572 16.6029L76.384 16.5514L71.4446 27.8109L66.4657 16.5509C66.3674 16.5646 66.2503 16.5789 66.1131 16.5926C65.976 16.6063 65.8309 16.6131 65.6771 16.6131C65.5857 16.6131 65.3874 16.6166 65.0829 16.6234C64.7777 16.6303 64.52 16.6343 64.3097 16.6343L62.7749 16.6131L61.9646 16.5503V17.1914C62.8137 17.2691 63.3749 17.432 63.6486 17.6811C63.9217 17.9303 64.0589 18.3914 64.0589 19.064L64.0354 19.6537L63.9354 20.8314L63.5314 25.3777C63.44 26.3949 63.3206 27.3491 63.1737 28.24C63.0263 29.1309 62.9177 29.6914 62.848 29.9234C62.7211 30.2949 62.5194 30.5549 62.2429 30.7017C61.9663 30.8491 61.5154 30.9229 60.8914 30.9229V31.5229H61.4069V31.5229ZM83.0314 31.5646H91.5657L93.7646 31.6274L94.5749 28.1977L93.9646 28.0189C93.7046 29.04 93.2943 29.732 92.7331 30.0949C92.172 30.4577 91.0743 30.6389 89.44 30.6389C88.4154 30.6389 87.7583 30.5194 87.4669 30.2811C87.1754 30.0429 87.0303 29.5023 87.0303 28.6606V24.2206H88.8611C89.8783 24.2206 90.5166 24.3486 90.776 24.6046C91.0354 24.8606 91.1657 25.3989 91.1657 26.2194L91.7863 26.0937L91.744 24.8411C91.744 24.6937 91.7406 24.4886 91.7337 24.2257C91.7269 23.9629 91.7234 23.7714 91.7234 23.652L91.7863 21.6949L91.8074 21.264H91.1657V21.348C91.1657 22.0703 91.0269 22.5491 90.7497 22.784C90.4726 23.0194 89.8297 23.1366 88.8194 23.1366H87.0309V17.4126H89.3977C90.6531 17.4126 91.4811 17.5863 91.8811 17.9326C92.2811 18.2794 92.5229 18.9371 92.6069 19.9063L93.1646 19.6766V16.5709H84.5571L82.3474 16.5497V17.1914H82.5263C83.2491 17.1914 83.7171 17.276 83.9309 17.444C84.1451 17.6126 84.252 18.0966 84.252 18.8966V29.3234C84.252 30.0114 84.1343 30.4406 83.8994 30.6126C83.6646 30.784 83.1474 30.8703 82.3474 30.8703L82.3583 31.628C82.5823 31.5857 82.8069 31.5651 83.0314 31.5651V31.5646Z" fill="white"/>
</g>
<defs>
<clipPath id="clip0">
<rect width="78.8571" height="16" fill="white" transform="translate(16 16)"/>
</clipPath>
</defs>
</svg>
