<svg width="256" height="48" viewBox="0 0 256 48" fill="none" xmlns="http://www.w3.org/2000/svg">
<rect width="256" height="48" fill="#0084B4"/>
<path d="M26.4829 24.7432C26.4829 29.5959 28.1767 31.839 31.7703 31.839C34.9062 31.839 37.3325 29.8248 37.3325 24.9034C37.3325 20.0279 35.6158 17.8306 32.0221 17.8306C28.8862 17.8306 26.4826 19.7991 26.4826 24.7432H26.4829ZM34.0365 24.9263C34.0365 30.2825 32.9378 31.038 31.8162 31.038C30.7175 31.038 29.7561 30.1682 29.7561 24.6976C29.7561 19.3644 30.8548 18.6317 31.9535 18.6317C33.0751 18.6317 34.0365 19.4557 34.0365 24.9263H34.0365ZM37.9735 31.5872H46.0766V27.4899H45.4356L44.3141 30.6715H42.254V18.9749L43.4442 18.7002V18.0822H38.065V18.7002L39.1637 18.9749V30.6945L37.9735 30.9691V31.5872L37.9735 31.5872ZM47.1522 18.0822V18.7002L48.2509 18.9977V30.6943L47.1522 30.969V31.587H52.3255V30.969L51.3412 30.6943V25.3839H54.3168V30.6943L53.4012 30.969V31.587H58.5056V30.969L57.4069 30.6943V18.9747L58.4141 18.7V18.082H53.4011V18.7L54.3167 18.9747V24.4682H51.3411V18.9747L52.3254 18.7V18.082H47.1521L47.1522 18.0822ZM59.3753 31.5872H62.8316V30.9692L61.4353 30.6945L62.1907 27.4669H65.0748L66.1506 30.6945L64.9374 30.9692V31.5872H70.3851V30.9692L69.378 30.6945L65.5554 18.0595H63.6327L60.3594 30.6945L59.3751 30.9692V31.5872H59.3753ZM62.4426 26.5285L63.4956 22.2709L64.8003 26.5285H62.4426ZM83.8447 25.0406C83.8447 19.7301 81.8304 18.082 78.4885 18.082H73.2696V18.7L74.3454 18.9747V30.6943L73.2696 30.9689V31.587H78.7172C81.3953 31.587 83.8444 29.8244 83.8444 25.0406L83.8447 25.0406ZM78.4428 30.6716H77.573V18.9977H78.3512C79.8849 18.9977 80.7318 19.8904 80.7318 24.9034C80.7318 29.8246 79.9993 30.6716 78.4428 30.6716H78.4428ZM16.0458 16.2051V16.9147L17.4421 17.2123V30.58L16 30.8776V31.5872H22.6839V30.8776L20.8527 30.58V24.3999H22.8212L23.3019 26.4371H24.0344V21.4701H23.3019L22.8212 23.3471H20.8527V17.2354H23.3706L24.6524 20.7375H25.4307V16.2052H16.0459L16.0458 16.2051Z" fill="white"/>
<path d="M90.4706 30.6724H87.9756V25.2932H89.6466L90.0586 27.1015H90.6995V22.7295H90.0586L89.6466 24.3776H87.9756V19.0444H90.0586L91.1573 22.02H91.8669V18.1287H83.6493V18.7238L84.8854 18.9985V30.6951L83.6265 30.9698V31.5878H92.2787V27.6507H91.592L90.4704 30.6721L90.4706 30.6724ZM101.915 16C99.1687 16 96.9942 17.7625 96.9712 20.5323C96.9484 25.0872 102.762 25.133 102.762 28.7725C102.762 29.7568 102.007 30.6495 100.817 30.6495C100.016 30.6495 99.1458 30.5351 98.5049 30.146L97.8182 27.1704H97.0171V31.3364C97.8182 31.6569 99.0085 31.84 100.359 31.84C103.495 31.84 105.601 29.551 105.601 26.7812C105.601 21.837 99.9009 22.1575 99.9009 18.7927C99.9009 17.8771 100.61 17.1675 101.915 17.1675C102.487 17.1675 102.877 17.2361 103.449 17.3506L104.204 20.418H104.937V16.2519C103.998 16.0688 102.968 16.0001 101.915 16.0001L101.915 16ZM114.894 24.286H114.322V17.2817H114.94C116.107 17.2817 116.542 17.9226 116.542 20.761C116.542 23.5993 115.947 24.286 114.894 24.286H114.894ZM115.741 25.339C118.808 25.339 120.136 23.5307 120.136 20.784C120.136 17.2362 118.442 16.229 115.924 16.229H109.515V16.9386L110.911 17.2361V30.5809L109.469 30.8785V31.5881H116.061V30.8785L114.322 30.5809V25.3392H115.741V25.339ZM122.356 26.5521L123.409 22.2719L124.714 26.5521H122.356H122.356ZM119.151 31.5879H122.745V30.9698L121.372 30.6952L122.127 27.4676H124.989L126.041 30.6952L124.828 30.9698V31.5879H130.414V30.9698L129.269 30.6952L125.469 18.0829H123.546L120.25 30.6952L119.152 30.9698V31.5879H119.151ZM129.841 18.1286V18.7237L130.94 18.9984V27.6964C130.94 30.8095 131.947 31.9997 134.945 31.9997C137.646 32.0225 138.928 30.9009 138.928 28.2916V18.9984L139.958 18.7237V18.1286H136.845V18.7237L137.99 18.9984V28.1087C137.99 30.0085 137.463 31.0385 135.701 31.0385C134.442 31.0385 134.03 30.2373 134.03 28.5206V18.9984L135.22 18.7237V18.1286H129.841L129.841 18.1286ZM140.965 31.5879H148.931V27.4906H148.29L147.191 30.6721H145.223V18.9983L146.413 18.7236V18.1285H141.034V18.7236L142.155 18.9983V30.6949L140.965 30.9695V31.5876L140.965 31.5879ZM149.869 24.7437C149.869 29.5965 151.563 31.8396 155.157 31.8396C158.27 31.8396 160.673 29.8253 160.673 24.904C160.673 20.0512 158.956 17.8538 155.363 17.8538C152.25 17.8538 149.869 19.8224 149.869 24.7437ZM157.4 24.9497C157.4 30.2829 156.279 31.0384 155.18 31.0384C154.081 31.0384 153.143 30.1686 153.143 24.7207C153.143 19.3875 154.241 18.6548 155.34 18.6548C156.439 18.6548 157.4 19.4788 157.4 24.9494L157.4 24.9497ZM106.701 29.07C107.433 29.07 108.028 29.7338 108.028 30.535C108.028 31.3361 107.387 31.9999 106.655 31.9999C105.968 31.9999 105.327 31.3361 105.327 30.535C105.327 29.7338 106.014 29.07 106.701 29.07H106.701Z" fill="white"/>
</svg>
