<svg width="256" height="48" viewBox="0 0 256 48" fill="none" xmlns="http://www.w3.org/2000/svg">
<rect width="256" height="48" fill="#C4170C"/>
<path fill-rule="evenodd" clip-rule="evenodd" d="M16 26.8424C16 29.6914 18.6157 32 21.8472 32H33.5178V22.1531H27.022V27.0579H23.9368C23.1295 27.0579 22.4741 26.4799 22.4741 25.7681V20.9855C22.4741 20.2748 22.8704 19.6958 23.6772 19.6958H28.8963L31.8195 16.0244H21.8472C18.6157 16.0244 16 18.5705 16 21.4203V26.8424ZM36.1136 32H42.5974V17.29C42.5974 16.5782 41.9433 16 41.136 16H34.7438L31.8195 19.6857H34.6519C35.4591 19.6857 36.1135 20.2635 36.1135 20.9749V32H36.1136Z" fill="white"/>
</svg>
