<svg width="256" height="48" viewBox="0 0 256 48" fill="none" xmlns="http://www.w3.org/2000/svg">
<rect width="256" height="48" fill="black"/>
<path d="M32.5857 31.1973H37.2709L39.7828 16.8208H35.0975L34.1712 21.9693H30.1094L31.0358 16.8208H26.3505L23.8386 31.1973H28.5239L29.4681 25.8172H33.5298L32.5857 31.1973Z" fill="white"/>
<path d="M42.4371 16.8027L41.0119 24.8015C40.8872 25.4251 40.8337 26.0308 40.8337 26.6008C40.8337 30.8407 44.5392 31.4821 46.766 31.4821C51.4335 31.4821 53.4466 29.9322 54.177 25.7457L55.7447 16.7849H51.0594L49.7233 24.3027C49.2957 26.6543 48.9929 27.8835 47.247 27.8835C46.1069 27.8835 45.5546 27.2778 45.5546 26.0308C45.5546 25.5498 45.6259 24.9619 45.7684 24.2315L47.1223 16.7849H42.4371V16.8027Z" fill="white"/>
<path d="M80.5071 31.1973H85.1923L85.8515 27.4918H88.0605C92.1401 27.4918 94.4025 25.2828 94.4025 21.2567C94.4025 18.4241 92.4429 16.803 89.0047 16.803H83.019L80.5071 31.1973ZM87.8111 23.9467H86.4572L87.0807 20.5619H88.3455C89.3788 20.5619 89.9311 21.0785 89.9311 22.0227C89.9311 23.2163 89.1294 23.9467 87.8111 23.9467Z" fill="white"/>
<path d="M103.506 16.5C98.4108 16.5 95.3645 19.7957 95.3645 25.3361C95.3645 29.1841 97.7873 31.5 101.849 31.5C106.944 31.5 109.99 28.2043 109.99 22.6639C110.008 18.7981 107.585 16.5 103.506 16.5ZM102.134 27.7767C100.923 27.7767 100.21 26.9038 100.21 25.443C100.21 24.8907 100.264 24.4097 100.37 23.8575C100.727 21.9691 101.332 20.2411 103.239 20.2411C104.45 20.2411 105.163 21.114 105.163 22.5748C105.163 23.1271 105.109 23.6081 105.002 24.1603C104.646 26.0309 104.04 27.7767 102.134 27.7767Z" fill="white"/>
<path d="M126.291 31.1973H130.976L132.829 20.6688H136.356L137.033 16.8208H125.044L124.367 20.6688H128.108L126.291 31.1973Z" fill="white"/>
<path d="M118.524 22.1295C117.045 21.6663 116.439 21.4703 116.439 20.7755C116.439 20.3124 116.742 19.7601 117.633 19.7601C118.292 19.7601 118.844 20.1342 119.058 20.6865L123.191 19.5641C122.71 17.5333 120.964 16.5 117.954 16.5C112.288 16.5 111.843 20.2945 111.843 21.4525C111.843 23.804 113.09 25.247 115.798 25.9953C116.511 26.1912 117.33 26.405 117.33 27.1888C117.33 27.8124 116.867 28.2043 116.065 28.2043C115.335 28.2043 114.551 27.7767 114.284 27.0285L110.204 28.133C110.649 30.2708 112.663 31.4822 115.816 31.4822C118.221 31.4822 122.247 30.8409 122.247 26.4941C122.265 24.3207 121.035 22.8955 118.524 22.1295Z" fill="white"/>
<path d="M21.2197 31.1966L23.7494 16.8201H16V31.1966H21.2197Z" fill="#0DBE98"/>
<path d="M139.046 16.8208L136.534 31.1973H144.284V16.8208H139.046Z" fill="#0DBE98"/>
<path d="M58.4169 16.803L55.905 31.1973H60.5903L61.3385 26.9574H65.2756L65.9169 23.341H61.9799L62.4252 20.6688H67.93L68.6069 16.803H58.4169Z" fill="white"/>
<path d="M70.7089 16.803L68.197 31.1973H72.8823L73.6127 26.9574H77.5676L78.2089 23.341H74.2718L74.7172 20.6688H80.222L80.8989 16.803H70.7089Z" fill="white"/>
</svg>
