<svg width="256" height="48" viewBox="0 0 256 48" fill="none" xmlns="http://www.w3.org/2000/svg">
<rect width="256" height="48" fill="#1E4C9A"/>
<path d="M52.9992 23.7853C52.9921 25.899 52.2249 27.7199 50.6978 29.2349C49.1707 30.752 47.3448 31.5081 45.2275 31.4999C43.1074 31.4942 41.2897 30.7328 39.7697 29.2207C38.2512 27.6935 37.4965 25.8665 37.4997 23.7354C37.5097 21.6046 38.2668 19.7823 39.7804 18.2644C40.5586 17.5059 41.4005 16.9407 42.3015 16.5717C43.2032 16.1853 44.1933 15.9948 45.2724 16.0001C46.3422 16.0037 47.3718 16.2255 48.3669 16.6736C49.363 17.107 50.2192 17.7199 50.9368 18.5269L48.166 21.0704C47.8348 20.6958 47.3861 20.3845 46.8173 20.1338L46.0541 19.8827C45.7943 19.8268 45.5293 19.7982 45.2635 19.7972C44.1413 19.7937 43.1979 20.1772 42.4354 20.9511C41.6697 21.7204 41.2858 22.6549 41.2837 23.7493C41.2805 24.8234 41.6647 25.764 42.4368 26.5546C43.2086 27.3317 44.1438 27.7199 45.2404 27.7224C46.0004 27.7267 46.7041 27.5329 47.358 27.1504C48.0104 26.7491 48.5104 26.1718 48.8598 25.41L45.432 25.3972L45.4412 22.2884L52.9212 22.3098L52.9831 23.2643L52.9992 23.7853ZM77.5834 18.4742C76.0285 16.9072 74.1691 16.1219 71.9984 16.1166C69.816 16.1094 67.9456 16.884 66.3992 18.4386C64.8479 19.9782 64.0704 21.8443 64.0619 24.0453C64.0569 26.2141 64.8222 28.0803 66.3657 29.6448C67.9057 31.2075 69.7686 31.9932 71.9518 32C74.132 32.0064 76.0003 31.2318 77.5485 29.6779C79.1119 28.1245 79.8993 26.2622 79.9061 24.0901C79.9118 21.9081 79.1347 20.0344 77.5834 18.4738V18.4742ZM74.8137 26.925C74.0166 27.7178 73.0686 28.1145 71.9628 28.1088C70.8289 28.1027 69.8698 27.7099 69.0959 26.9293C68.3177 26.1361 67.9313 25.1735 67.9313 24.057C67.9399 22.9341 68.3373 21.9789 69.1326 21.1883C69.9289 20.3995 70.8826 20.0042 71.9845 20.0063C73.0793 20.0109 74.0248 20.4194 74.834 21.2282C75.6381 22.037 76.0399 22.9904 76.032 24.0812C76.032 25.1878 75.6246 26.1376 74.814 26.9246L74.8137 26.925ZM111.497 24.0937C111.494 26.2615 110.727 28.1198 109.197 29.6797C107.683 31.2325 105.857 32.0071 103.724 32C101.59 31.9939 99.7739 31.2086 98.27 29.6448C96.7646 28.0792 96.0106 26.2124 96.0192 24.0463C96.0274 21.8475 96.7813 19.9803 98.3002 18.4372C99.8145 16.8833 101.64 16.1077 103.776 16.1162C105.895 16.1216 107.711 16.9086 109.233 18.4731C110.749 20.0366 111.505 21.9099 111.498 24.0941L111.497 24.0937ZM107.716 24.0798C107.722 22.9893 107.33 22.0391 106.543 21.2261C105.755 20.4194 104.831 20.0113 103.759 20.0067C102.679 20.0045 101.753 20.397 100.973 21.1894C100.196 21.9786 99.8031 22.9395 99.8003 24.0567C99.7942 25.1756 100.176 26.134 100.933 26.9307C101.695 27.7128 102.63 28.1077 103.738 28.1077C104.815 28.1099 105.748 27.7188 106.524 26.9232C107.316 26.1361 107.713 25.186 107.716 24.0794V24.0798ZM31.481 24.0937C31.4746 26.2615 30.7082 28.1198 29.1785 29.6797C27.665 31.2325 25.8394 32.0071 23.7065 32C21.5739 31.9939 19.7544 31.2086 18.2497 29.6448C16.7444 28.0792 15.995 26.2124 16 24.0463C16.0054 21.8479 16.7693 19.9803 18.28 18.4372C19.7997 16.8833 21.6195 16.1077 23.7542 16.1162C25.8739 16.1212 27.6949 16.9083 29.2092 18.4728C30.7342 20.0362 31.4885 21.9095 31.481 24.0937ZM27.6977 24.0794C27.7027 22.989 27.311 22.0388 26.526 21.2257C25.7347 20.4191 24.8109 20.0109 23.7428 20.0063C22.6648 20.0042 21.7346 20.3966 20.9507 21.189C20.1782 21.9782 19.7858 22.9391 19.7811 24.0563C19.7779 25.1753 20.1558 26.1337 20.9169 26.9303C21.6729 27.7124 22.6117 28.1074 23.719 28.1074C24.7995 28.1095 25.7258 27.7185 26.5075 26.9229C27.2964 26.1358 27.6949 25.1856 27.6977 24.0791V24.0794ZM88.3715 28.5094L85.6919 28.5244L85.6965 24.9392H88.3815C89.2298 24.9392 90.6501 25.1464 90.6501 26.7266C90.6501 28.0689 89.879 28.5094 88.3715 28.5094ZM85.7268 19.5391L87.6564 19.5234C88.2967 19.5234 89.7198 19.497 89.7198 20.611C89.7198 21.8148 88.2183 21.6684 87.6845 21.6684H85.7229L85.7268 19.5391ZM91.9094 23.1019C93.2353 22.4131 93.5939 21.4736 93.5939 20.3104C93.5939 19.4354 93.4076 18.471 92.6761 17.7794C91.4891 16.5603 89.9969 16.5001 87.2372 16.5001H81.9995V31.4999H87.3971C90.1522 31.4999 91.4848 31.4073 92.9863 30.246C93.9785 29.4913 94.4992 28.0023 94.4992 26.7964C94.4992 26.1682 94.5362 23.9644 91.9097 23.1019H91.9094ZM65.4996 31.4999L63.194 28.3403H58.7544V16.5001H54.9992V31.4999H65.4996Z" fill="white"/>
</svg>
