<svg width="256" height="48" viewBox="0 0 256 48" fill="none" xmlns="http://www.w3.org/2000/svg">
<rect width="256" height="48" fill="#F9E425"/>
<g clip-path="url(#clip0)">
<path d="M34.1501 8.015C34.1151 8.02 34.0026 8.0375 33.9001 8.0525C33.3026 8.135 32.6076 8.42 31.9601 8.845C31.3276 9.2625 30.8526 9.6575 29.9126 10.55C29.1901 11.235 28.8951 11.495 28.5576 11.7475C27.2601 12.7125 25.4151 13.3925 22.4501 14L22.0601 14.08L21.8376 13.935C20.4551 13.0425 19.0101 12.385 17.4201 11.925C16.9326 11.7825 16.2276 11.62 15.8501 11.56C15.5376 11.5125 14.9051 11.505 14.6751 11.5475C13.6851 11.73 13.1501 12.4075 13.0251 13.6375C12.9826 14.0325 13.0051 14.86 13.0751 15.525C13.3101 17.8175 13.8026 19.855 14.6376 22.0125C14.9626 22.8525 15.0251 23.0825 15.0251 23.4325C15.0226 23.765 14.9076 24.0275 14.6076 24.3775C14.5426 24.455 14.3151 24.7 14.1076 24.9225C13.8976 25.145 13.6251 25.4625 13.5026 25.625C12.6851 26.71 12.2151 28.0175 12.0451 29.675C12.0026 30.085 12.0026 31.4575 12.0451 31.9125C12.1476 33.0275 12.3001 33.93 12.6151 35.3125C12.8026 36.125 12.8201 36.22 12.8651 36.5375C12.9101 36.8625 12.9801 37.03 13.1226 37.165C13.2051 37.245 13.4701 37.3875 13.4926 37.365C13.4976 37.3625 13.4551 37.225 13.4001 37.06C12.5726 34.6075 12.2326 31.5775 12.5376 29.3875C12.6951 28.265 12.9876 27.4025 13.4476 26.7225C13.6576 26.41 13.8351 26.2075 14.0701 26.015C15.1126 25.165 16.4651 25.135 18.0501 25.9275C19.8776 26.8425 21.1226 28.245 21.4626 29.775C21.5276 30.07 21.5401 30.7125 21.4876 31.0275C21.2851 32.2375 20.4776 33.145 19.3301 33.455C19.0276 33.5375 18.3976 33.5475 18.0301 33.4775C16.8851 33.2575 15.8851 32.455 15.3601 31.335C15.2976 31.1975 15.2051 31.0075 15.1601 30.9075C15.0001 30.57 14.7351 30.4225 14.6001 30.595C14.4751 30.75 14.5901 31.275 14.8651 31.8C15.0726 32.2 15.3001 32.5 15.6751 32.8775C16.2451 33.45 16.8176 33.775 17.5626 33.945C17.9076 34.025 18.2101 34.05 19.1751 34.075C20.1101 34.1 20.3226 34.1225 20.6826 34.2375C20.9701 34.33 21.2276 34.455 21.4976 34.635C21.8301 34.8575 22.0526 35.0475 22.6876 35.65C23.3151 36.245 23.5451 36.4425 23.8601 36.655C24.1551 36.8525 24.4076 36.9775 24.7276 37.0825C24.9626 37.1625 25.1976 37.2125 26.2501 37.4125C27.2601 37.6075 27.8151 37.9025 28.1876 38.4475L28.3026 38.6175L28.2401 38.84C28.0726 39.4425 27.9976 39.7975 28.0226 39.8475C28.0526 39.9025 28.2901 40 28.4001 40C28.5451 40 28.5651 39.9575 28.7251 39.3175C28.9401 38.4425 29.0201 38.225 29.2401 37.8975C29.5151 37.4875 29.7651 37.18 30.1101 36.835C31.0951 35.855 32.3151 35.22 33.5176 35.0625C35.0451 34.8625 36.4551 35.565 37.2226 36.9125C37.5526 37.4925 37.7126 38.1175 37.6951 38.77L37.6876 39.1L37.7626 39.13C38.0026 39.23 38.3151 39.0625 38.4151 38.7825C38.4601 38.6525 38.4576 38.26 38.4101 37.9875C38.2926 37.3075 37.8526 36.3925 37.3326 35.75C37.1801 35.5625 36.7801 35.1625 36.5326 34.95L36.4001 34.8375L36.9901 33.8C38.7576 30.6875 38.9126 30.4325 39.1501 30.2175C39.3851 30.005 39.6976 29.945 39.9926 30.055C40.1876 30.125 40.4551 30.395 40.5701 30.6275C40.8101 31.12 40.7751 31.54 40.4126 32.545C40.1226 33.3575 40.0601 33.695 40.0826 34.345C40.1026 34.9875 40.2351 35.5225 40.5251 36.1225C40.8976 36.89 41.4226 37.5025 42.0951 37.9525C42.4026 38.16 42.6826 38.295 43.0426 38.415C43.4926 38.5675 43.7226 38.535 43.8876 38.3025L43.9626 38.195L43.9576 37.605C43.9476 35.9575 43.5376 34.235 42.7776 32.6625C42.5201 32.13 42.3026 31.75 41.9626 31.2375C41.6176 30.72 41.3551 30.3825 40.8226 29.775C40.3351 29.2175 40.1351 28.9425 39.9726 28.6125C39.8076 28.2725 39.7501 28.02 39.7501 27.625C39.7501 27.225 39.7901 26.9925 39.9851 26.2175C40.2451 25.2 40.3376 24.635 40.3726 23.87C40.4276 22.6175 40.2476 21.47 39.7751 20.095C39.6926 19.8525 39.4551 19.23 39.2476 18.7075C38.3376 16.425 38.2201 15.9275 38.1126 13.875C38.0526 12.695 38.0051 12.165 37.9226 11.675C37.7251 10.4975 37.2951 9.57 36.6526 8.9225C36.1901 8.46 35.7101 8.1925 35.0951 8.06C34.9201 8.0225 34.2801 7.9925 34.1501 8.015ZM34.9251 8.9875C35.9701 9.3725 36.8351 10.6975 37.1976 12.465C37.4676 13.785 37.4101 15.06 37.0251 16.185C36.9426 16.4325 36.9301 16.575 36.9876 16.685C37.0076 16.7225 37.1301 16.8975 37.2601 17.0725C38.6701 18.9775 39.1151 20.08 39.3851 22.35C39.5376 23.6275 39.5201 24.75 39.3226 26.175C39.2101 26.9875 38.9851 27.935 38.8351 28.2275C38.8176 28.265 38.7101 28.5625 38.5976 28.89C38.4876 29.2175 38.3401 29.61 38.2726 29.7625C37.7876 30.845 37.0226 31.755 35.9176 32.5575C35.3326 32.985 34.8001 33.285 33.7101 33.8025C31.0876 35.0475 30.0101 35.425 28.7151 35.5525C28.2776 35.595 27.3051 35.5675 26.8751 35.5025C25.9501 35.3575 24.8951 35.05 23.7626 34.595C22.6176 34.135 21.4401 33.5475 21.3351 33.3875C21.2751 33.295 21.3076 33.22 21.4726 33.0775C21.5551 33.005 21.6801 32.8675 21.7526 32.7675C21.8251 32.6675 21.9351 32.52 21.9951 32.4375C22.1301 32.2575 22.2576 31.9925 22.3126 31.7875C22.3701 31.5775 22.3876 31.06 22.3526 30.76C22.3076 30.4075 22.2176 29.9975 22.0626 29.445C21.7576 28.3475 21.5176 27.825 21.0976 27.325C21.0226 27.235 20.9051 27.09 20.8376 27C20.7676 26.91 20.6426 26.76 20.5576 26.6675C20.3176 26.405 20.3176 26.3525 20.5601 26.0725C20.6476 25.97 20.8101 25.7825 20.9226 25.6525C21.4701 25.0175 21.8951 24.3675 22.6101 23.0675C23.3026 21.8125 23.5501 20.8925 23.7226 18.9375C23.8226 17.8275 23.8151 17.36 23.6901 16.865C23.5801 16.435 23.2826 15.77 23.0851 15.51C22.9626 15.35 22.9251 15.265 22.9251 15.1375C22.9251 15.035 22.9376 15.01 23.0376 14.9025C23.2751 14.6475 23.7276 14.4825 25.0751 14.155C26.0251 13.9225 27.3201 13.7125 28.0126 13.6775C28.2676 13.665 28.3876 13.6475 28.4551 13.615C28.6251 13.5325 28.9251 13.185 29.2626 12.68C29.4401 12.415 29.6751 12.0875 29.7851 11.955C30.0451 11.6425 30.7376 10.9375 31.0551 10.655C31.9551 9.865 33.2576 9.1025 33.9926 8.94C34.2651 8.8775 34.6901 8.9 34.9251 8.9875ZM15.8801 14.1875C16.2001 14.2425 16.5301 14.36 16.8751 14.5425C17.9726 15.12 18.4601 15.6775 18.6001 16.525C18.6801 16.995 18.5251 17.4875 18.1401 18C17.8326 18.41 17.0851 19.065 16.7251 19.2425C16.2926 19.455 15.9676 19.2675 15.5451 18.56C15.1801 17.9475 14.9076 17.35 14.7401 16.7925C14.6301 16.43 14.4351 15.5625 14.4001 15.29C14.3276 14.7075 14.6001 14.275 15.1001 14.1775C15.2801 14.1425 15.6501 14.1475 15.8801 14.1875Z" fill="black"/>
<path d="M34.1276 10.4275C33.9501 10.4575 33.5876 10.58 33.4076 10.6725C32.7601 11 32.0701 11.65 31.4926 12.4825C31.1501 12.9725 31.0251 13.2525 31.0251 13.53C31.0251 13.86 31.1976 14.045 31.7126 14.2625C31.8376 14.315 32.3426 14.56 32.8351 14.8075C33.3301 15.0525 33.8026 15.2825 33.8851 15.3125C34.3276 15.4775 34.7401 15.4925 35.0376 15.355C35.5901 15.095 35.8776 14.32 35.8426 13.175C35.8276 12.7 35.7901 12.44 35.6276 11.7125C35.5176 11.2225 35.4901 11.125 35.3876 10.9275C35.1751 10.5075 34.7251 10.33 34.1276 10.4275ZM34.2876 11.2825C34.4476 11.45 34.5401 11.7375 34.7351 12.65C34.8526 13.2075 34.9026 13.6325 34.9076 14.115C34.9126 14.48 34.9076 14.525 34.8651 14.5725C34.7726 14.675 34.5801 14.6325 34.0276 14.3975C33.5026 14.1725 33.0726 13.915 32.5876 13.5375C32.1801 13.22 32.1026 13.0675 32.2326 12.8275C32.3251 12.6525 32.8726 11.9525 33.1076 11.7075C33.4526 11.35 33.7576 11.1775 34.0476 11.175C34.1751 11.175 34.1901 11.1825 34.2876 11.2825Z" fill="black"/>
<path d="M34.2401 22.3126C34.1576 22.3451 33.9651 22.4576 33.8151 22.5576C33.6626 22.6601 33.4401 22.8076 33.3226 22.8851C33.0776 23.0426 32.8601 23.2651 32.7726 23.4426C32.6851 23.6225 32.6776 23.8775 32.7551 24.0225C32.8451 24.1925 32.9726 24.28 33.1376 24.295C33.2701 24.305 33.2801 24.3025 33.3601 24.215C33.4176 24.155 33.4801 24.035 33.5501 23.8575C33.7226 23.4076 33.8476 23.2576 34.2001 23.0926C34.4826 22.9576 34.6426 22.9876 34.9351 23.2301C35.0151 23.2976 35.1176 23.3701 35.1601 23.3951C35.2651 23.4501 35.5126 23.4501 35.6201 23.3926C35.7926 23.3001 35.8501 23.0701 35.7526 22.8776C35.6776 22.7326 35.4451 22.5351 35.2151 22.4251C34.8251 22.2376 34.5101 22.2001 34.2401 22.3126Z" fill="black"/>
<path d="M37.0127 24.7124C36.6802 24.7699 35.8752 25.0349 35.5951 25.1774C35.4776 25.2374 35.4001 25.3374 35.4001 25.4299C35.4001 25.5274 35.4801 25.6799 35.5751 25.7599C35.7027 25.8649 35.8227 25.8499 36.1577 25.6874C36.4027 25.5674 36.4727 25.5449 36.7127 25.5099C36.9277 25.4799 37.0277 25.4499 37.1727 25.3799C37.3852 25.2724 37.4027 25.2424 37.4102 24.9824C37.4127 24.8324 37.4052 24.7949 37.3627 24.7549C37.2927 24.6849 37.2127 24.6774 37.0127 24.7124Z" fill="black"/>
<path d="M24.4 25.3399C24.365 25.3449 24.27 25.3624 24.1875 25.3774C23.83 25.4399 23.465 25.7049 23.215 26.0824C22.85 26.6374 22.8225 26.8549 23.1 27.0424C23.21 27.1199 23.365 27.1174 23.4775 27.0424C23.53 27.0074 23.6 26.9174 23.6625 26.7999C23.7925 26.5574 24.1275 26.2099 24.3275 26.1149C24.615 25.9774 24.8675 25.9824 25.275 26.1374C25.5475 26.2399 25.675 26.2474 25.8275 26.1674C26.0375 26.0549 26.0525 25.8949 25.8725 25.6899C25.72 25.5149 25.59 25.4624 25.15 25.3899C24.9175 25.3499 24.4975 25.3225 24.4 25.3399Z" fill="black"/>
<path d="M37.1125 26.2176C36.2825 26.4426 36.2725 26.4476 36.185 26.5376C36.1 26.6301 36.0625 26.7551 36.1 26.8251C36.1125 26.8501 36.16 26.8826 36.2025 26.8976C36.3475 26.9476 36.4875 26.9301 36.7675 26.8226C37.015 26.7276 37.06 26.7201 37.325 26.7101C37.69 26.6976 37.935 26.6576 37.9825 26.6051C38.0825 26.4926 38.0625 26.2926 37.9375 26.1626C37.865 26.0851 37.8425 26.0751 37.735 26.0776C37.6675 26.0801 37.3875 26.1426 37.1125 26.2176Z" fill="black"/>
<path d="M30.1576 26.3124C29.5051 26.4299 28.9251 26.7999 28.6001 27.3024C28.4426 27.5474 28.4076 27.7674 28.4976 27.9624C28.6026 28.1874 28.8276 28.3174 29.2926 28.4149C29.9601 28.5549 30.0826 28.5999 30.1226 28.7074C30.1701 28.8299 30.2776 29.6799 30.2776 29.9324C30.2776 30.1724 30.2676 30.2249 30.1851 30.4749C30.0401 30.9149 29.8776 31.1199 29.5701 31.2624C29.0876 31.4824 28.4876 31.3324 27.9801 30.8649C27.8526 30.7499 27.7101 30.6399 27.6626 30.6249C27.5301 30.5799 27.4176 30.6449 27.3351 30.8149C27.2776 30.9349 27.2701 30.9724 27.2801 31.1249C27.3001 31.4074 27.4601 31.6149 27.7876 31.7799C28.1826 31.9824 28.6051 32.0624 29.1476 32.0424C29.8626 32.0174 30.2251 31.8349 30.4551 31.3924C30.6476 31.0224 30.8526 30.8024 31.0601 30.7474C31.1501 30.7224 31.1826 30.7249 31.3251 30.7774C31.4726 30.8324 31.5351 30.8374 31.9751 30.8449C32.2426 30.8499 32.6076 30.8424 32.7851 30.8274C33.1751 30.7949 33.2951 30.7474 33.5226 30.5349C33.6101 30.4549 33.7901 30.2974 33.9201 30.1874C34.2376 29.9224 34.2651 29.8674 34.3301 29.3599C34.3601 29.1299 34.3726 28.9224 34.3626 28.8574C34.3426 28.7199 34.2351 28.5924 34.1051 28.5549C33.9726 28.5149 33.7176 28.5174 33.6176 28.5599C33.4626 28.6249 33.4426 28.6724 33.4226 29.0074C33.4001 29.3474 33.3301 29.6624 33.2476 29.7799C33.1726 29.8849 32.9951 29.9924 32.7876 30.0574C32.5651 30.1274 32.1226 30.1324 31.8751 30.0674C31.4976 29.9674 31.1976 29.7474 31.1151 29.5124C31.0951 29.4474 31.0651 29.2799 31.0476 29.1399C30.9951 28.6674 31.0726 28.3474 31.3701 27.8049C31.6601 27.2824 31.7076 27.1674 31.7201 26.9524C31.7276 26.7749 31.7251 26.7549 31.6551 26.6449C31.5101 26.4199 31.0901 26.2749 30.6001 26.2774C30.4551 26.2774 30.2576 26.2949 30.1576 26.3124Z" fill="black"/>
<path d="M36.5701 28.1526C36.4601 28.1851 36.3501 28.3026 36.3501 28.3901C36.3501 28.4901 36.4126 28.6101 36.5026 28.6851C36.5826 28.7526 36.5926 28.7551 36.7501 28.7351C37.1051 28.6901 37.2001 28.7051 37.4551 28.8326C37.7101 28.9601 37.8051 28.9751 37.9376 28.9101C38.0451 28.8601 38.2751 28.6176 38.2751 28.5551C38.2751 28.4151 38.0276 28.2776 37.6326 28.1976C37.3451 28.1401 36.7101 28.1125 36.5701 28.1526Z" fill="black"/>
<path d="M24.1375 28.4774C23.71 28.6249 23.1775 28.9474 22.9425 29.1999C22.8025 29.3499 22.7275 29.5074 22.7575 29.5849C22.785 29.6574 22.9 29.6824 23.0425 29.6549C23.2125 29.6199 24.305 29.1649 24.4575 29.0649C24.6275 28.9524 24.6475 28.6449 24.495 28.4799C24.4275 28.4099 24.335 28.4099 24.1375 28.4774Z" fill="black"/>
<path d="M24.0752 30.0676C24.0402 30.0726 23.9252 30.1051 23.8202 30.1401C23.3327 30.3001 22.9702 30.7026 23.0502 30.9976C23.0852 31.1276 23.2052 31.2676 23.3027 31.2876C23.4102 31.3127 23.6152 31.2051 23.7652 31.0476C23.8327 30.9776 23.9102 30.9076 23.9377 30.8926C23.9677 30.8776 24.1152 30.8651 24.2877 30.8626C24.5477 30.8626 24.6026 30.8526 24.6926 30.8051C24.8676 30.7126 24.9126 30.5726 24.8276 30.3876C24.7126 30.1326 24.4227 30.0101 24.0752 30.0676Z" fill="black"/>
<path d="M24.3877 31.6724C24.2727 31.7249 24.1227 31.8649 23.8202 32.2099C23.5277 32.5374 23.4902 32.6874 23.6552 32.8499C23.8777 33.0724 24.3077 32.9524 24.5402 32.5999C24.6277 32.4699 24.6927 32.4324 24.9002 32.3874C25.2477 32.3149 25.3502 32.2324 25.3502 32.0224C25.3502 31.8799 25.3052 31.8224 25.1377 31.7499C25.0202 31.6999 24.6677 31.6249 24.5527 31.6249C24.5177 31.6249 24.4427 31.6474 24.3877 31.6724Z" fill="black"/>
<path d="M19.5076 28.8125C19.4226 28.85 19.4151 28.87 19.4251 29.05C19.4376 29.285 19.6026 29.58 19.8751 29.85C20.0901 30.0675 20.2576 30.1625 20.3776 30.1375C20.4826 30.115 20.6151 29.99 20.6501 29.8875C20.6876 29.7725 20.6576 29.68 20.5026 29.445C20.2651 29.0825 20.0476 28.895 19.7776 28.815C19.6151 28.7675 19.6101 28.7675 19.5076 28.8125Z" fill="black"/>
<path d="M17.8526 29.5149C17.8201 29.5374 17.7801 29.5949 17.7601 29.6399C17.6976 29.7899 17.7126 29.8349 17.8776 29.9799C18.0526 30.1299 18.1251 30.2449 18.2101 30.4924C18.3226 30.8199 18.4126 30.8899 18.6801 30.8599C18.8876 30.8374 18.9351 30.7874 18.9176 30.6149C18.8926 30.3799 18.7851 30.1424 18.6226 29.9649C18.3776 29.6974 18.0676 29.4749 17.9451 29.4749C17.9251 29.4749 17.8851 29.4924 17.8526 29.5149Z" fill="black"/>
<path d="M16.2101 30.3126C16.1451 30.4126 16.1751 30.5726 16.2951 30.7551C16.4351 30.9726 16.5126 31.1476 16.5851 31.4226C16.6201 31.5526 16.6676 31.6776 16.6876 31.6975C16.7126 31.7225 16.7701 31.7375 16.8401 31.7375C16.9401 31.7375 16.9651 31.725 17.0376 31.6476C17.2451 31.4201 17.1326 30.9226 16.7876 30.5526C16.5176 30.2651 16.3001 30.1751 16.2101 30.3126Z" fill="black"/>
</g>
<path d="M55.982 25.916C55.982 23.65 56.774 21.912 58.138 21.912C59.194 21.912 59.546 22.792 59.546 24.068C59.546 24.464 59.524 24.838 59.458 25.322H61.548C62.032 25.102 62.516 24.552 62.516 23.716C62.516 21.78 60.712 20.922 58.49 20.922C54.838 20.922 52.462 23.716 52.462 27.434C52.462 31.042 54.816 33.22 57.874 33.22C60.338 33.22 62.12 32.01 62.846 29.326L62.362 29.018C61.658 30.03 60.734 30.47 59.436 30.47C57.236 30.47 55.982 28.732 55.982 25.916ZM69.0438 31.042C67.9438 31.042 67.5258 30.206 67.5258 29.084C67.5258 27.83 68.0318 27.412 68.8018 27.126L70.0118 26.664V30.734C69.6598 30.932 69.3958 31.042 69.0438 31.042ZM74.0158 24.75C74.0158 21.89 72.1678 20.922 69.0878 20.922C66.4258 20.922 64.3578 21.846 64.3578 23.848C64.3578 24.64 64.7978 25.168 65.4358 25.388L67.8778 25.058C67.7678 24.53 67.6798 24.024 67.6798 23.518C67.6798 22.484 68.0098 21.78 68.8678 21.78C69.7258 21.78 70.0118 22.462 70.0118 23.474V25.718L66.5138 26.95C64.9518 27.5 63.6098 28.292 63.6098 30.206C63.6098 32.098 64.9078 33.154 66.7558 33.154C68.3838 33.154 69.4398 32.296 70.0778 31.372C70.4078 32.538 71.3318 33.22 72.6078 33.22C73.8398 33.22 74.7858 32.758 75.5118 32.032L75.3578 31.438C75.2038 31.504 74.9178 31.57 74.6098 31.57C74.0818 31.57 74.0158 31.108 74.0158 30.58V24.75ZM80.8735 18.15H80.0155C78.8715 19.668 77.2875 20.944 75.5275 21.604V22.33H76.7815V29.612C76.7815 32.208 78.1895 33.22 80.2135 33.22C81.9735 33.22 83.2055 32.428 84.0415 31.064L83.7115 30.58C83.1835 30.932 82.6995 31.13 82.1275 31.13C81.2915 31.13 80.8735 30.668 80.8735 29.612V22.33H83.4475V21.142H80.8735V18.15ZM84.7362 30.954C84.7362 32.296 85.7482 33.22 87.0022 33.22C88.2782 33.22 89.2682 32.296 89.2682 30.954C89.2682 29.612 88.2782 28.666 87.0022 28.666C85.7482 28.666 84.7362 29.612 84.7362 30.954ZM95.6179 15.774H94.9359L90.3379 16.786V17.446L91.5479 18.062V31.284C91.5479 31.988 91.1959 32.076 90.3159 32.142V33H96.8499V32.142C95.9699 32.076 95.6179 31.988 95.6179 31.284V15.774ZM105.021 28.996L102.711 23.386C102.623 23.122 102.557 22.968 102.557 22.77C102.557 22.286 102.843 22.154 104.009 22V21.142H96.9694V22C97.7394 22.242 97.8714 22.396 98.0914 22.88L103.107 33.55L102.755 34.32C102.359 35.244 101.721 35.596 100.489 35.596C99.8074 35.596 99.3454 35.486 98.7734 35.376V36.938C99.0814 37.51 99.7634 37.862 100.621 37.862C102.161 37.862 102.975 36.85 103.789 34.914L108.805 22.88C109.003 22.396 109.179 22.242 109.927 22V21.142H105.923V22C107.067 22.154 107.375 22.286 107.375 22.77C107.375 22.968 107.309 23.122 107.199 23.408L105.021 28.996Z" fill="black"/>
<defs>
<clipPath id="clip0">
<rect width="31.975" height="32" fill="white" transform="translate(12 8)"/>
</clipPath>
</defs>
</svg>
