<svg width="256" height="48" viewBox="0 0 256 48" fill="none" xmlns="http://www.w3.org/2000/svg">
<rect width="256" height="48" fill="#111111"/>
<path d="M93.6007 20.3726C94.5237 20.3726 95.2778 21.4282 95.2778 22.7474L91.8667 23.1622C91.9607 21.3526 92.5259 20.3726 93.6007 20.3726ZM46.2141 20.3711C47.1378 20.3711 47.8919 21.4259 47.8919 22.7459L44.48 23.16C44.5741 21.3511 45.14 20.3711 46.2141 20.3711ZM124.003 20.3726C124.927 20.3726 125.68 21.4282 125.68 22.7474L122.269 23.1622C122.363 21.3526 122.928 20.3726 124.003 20.3726ZM150.315 32.2281H158.985V30.6074H150.315V32.2281ZM134.276 21.277C134.482 21.2022 134.727 21.1452 135.218 21.1452C137.102 21.1452 138.384 22.3896 138.384 25.16C138.384 27.4593 137.121 29.0237 135.293 29.0237C134.948 29.0182 134.604 28.9611 134.276 28.8541V21.277ZM106.135 22.4081H108.49V19.3733C108.039 19.1852 107.737 19.1096 107.303 19.1096C106.568 19.1096 105.682 19.6 104.759 20.3348L104.08 20.863V19.1096H103.59L98.9348 20.0519V20.7681L100.499 21.24V28.6474L98.9348 29.2126V29.8533H105.833V29.2126L104.08 28.6474V21.6919C104.533 21.5222 105.324 21.3904 105.513 21.3904L106.135 22.4081ZM114.899 19.1096C111.94 19.1096 108.698 20.957 108.698 25.0844C108.698 28.5148 110.979 30.1363 113.447 30.1363C114.296 30.1363 115.276 30.023 116.708 29.42L118.442 28.6844L118.198 28.0059C117.764 28.1756 117.161 28.2889 116.313 28.2889C113.976 28.2889 112.204 26.8941 112.204 23.7467C112.204 21.56 113.467 20.3726 114.616 20.3726C114.73 20.3726 114.861 20.3911 114.975 20.4481L116.011 22.4081H118.179V19.7319C117.312 19.4111 116.124 19.1096 114.899 19.1096ZM146.979 17.4326H146.112L142.022 19.7881V20.58L143.398 20.7119V28.1756C143.398 29.5141 144.453 30.1363 145.942 30.1363C146.64 30.1363 147.94 29.9096 148.807 29.6459L150.315 29.1748L150.183 28.4778C149.939 28.5341 149.504 28.5526 149.26 28.5526C147.884 28.5526 146.979 28.0437 146.979 26.3474V20.8252L150.202 20.9948V19.3926H146.979V17.4326ZM85.0059 17.4326H84.1385L80.0481 19.7881V20.58L81.4244 20.7119V28.1756C81.4244 29.5141 82.48 30.1363 83.9689 30.1363C84.6667 30.1363 85.9667 29.9096 86.8341 29.6459L88.3415 29.1748L88.2096 28.4778C87.9644 28.5341 87.5311 28.5526 87.2859 28.5526C85.9104 28.5526 85.0059 28.0437 85.0059 26.3474V20.8252L88.2289 20.9948V19.3926H85.0059V17.4326ZM98.7081 23.9541V23.6526C98.7081 22.0311 97.6148 19.1096 93.94 19.1096C91.1504 19.1096 88.3415 20.957 88.3415 25.0844C88.3415 28.4585 90.8111 30.1363 93.5059 30.1363C94.2978 30.1363 95.4474 30.0044 96.7859 29.42L98.463 28.6844L98.2185 28.0059C97.7844 28.1756 97.1815 28.2889 96.2955 28.2889C94.2222 28.2889 91.9415 27.083 91.8474 23.9541H98.7081ZM129.111 23.9541V23.6526C129.111 22.0311 128.018 19.1096 124.342 19.1096C121.553 19.1096 118.744 20.957 118.744 25.0844C118.744 28.4585 121.213 30.1363 123.909 30.1363C124.7 30.1363 125.85 30.0044 127.188 29.42L128.866 28.6844L128.621 28.0059C128.187 28.1756 127.584 28.2889 126.698 28.2889C124.625 28.2889 122.344 27.083 122.25 23.9541H129.111ZM51.3222 23.9519V23.6504C51.3222 22.0296 50.2289 19.1081 46.5533 19.1081C43.7637 19.1081 40.9556 20.9548 40.9556 25.083C40.9556 28.457 43.4244 30.1341 46.12 30.1341C46.9118 30.1341 48.0615 30.0022 49.3993 29.4178L51.077 28.683L50.8318 28.0044C50.3985 28.1741 49.7956 28.2874 48.9096 28.2874C46.8363 28.2874 44.5556 27.0807 44.4615 23.9519H51.3222ZM60.0504 16.7726V28.4207L58.2222 29.1185V29.8533H66.2704V29.1185L64.4422 28.4207V16.7726L66.2704 16.0748V15.34H58.2222V16.0748L60.0504 16.7726ZM78.823 28.6474V22.8037C78.823 20.6363 78.0126 19.1096 75.8267 19.1096C74.9215 19.1096 74.243 19.3926 73.357 19.7881L71.7548 20.4859V19.1096H71.2652L66.6096 20.0519V20.7681L68.1741 21.24V28.6474L66.6096 29.2126V29.8533H73.1311V29.2126L71.7548 28.6474V21.2963C72.0941 21.2022 72.6785 21.1452 73.1126 21.1452C74.2807 21.1452 75.2422 21.7859 75.2422 23.7089V28.6474L73.8659 29.2126V29.8533H80.3874V29.2126L78.823 28.6474ZM134.276 19.1096H133.785L129.13 20.0519V20.7681L130.694 21.24V32.7941L129.13 33.3593V34H136.216V33.3593L134.276 32.7941V30.1363H135.01C139.421 30.1363 141.89 27.4593 141.89 23.7467C141.89 20.5607 139.666 19.1096 138.007 19.1096C137.347 19.1096 136.198 19.5059 135.142 20.0333L134.426 20.3911H134.276V19.1096ZM39.3533 28.6452V22.8022C39.3533 20.6348 38.543 19.1081 36.3563 19.1081C35.4519 19.1081 34.7733 19.3904 33.8874 19.7867L32.2852 20.4837V14H31.7948L28.157 15.3385H16V18.9763H17.7156L18.4126 16.7333H20.7689V28.4193L18.9407 29.1163V29.8519H26.8V29.1163L25.1607 28.4193V16.7333H28.7037V28.6452L27.3281 29.2104V29.8519H33.6615V29.2104L32.2852 28.6452V21.3133C32.6244 21.2193 33.2089 21.1437 33.6422 21.1437C34.8111 21.1437 35.7719 21.7844 35.7719 23.7067V28.6452L34.3963 29.2104V29.8519H40.9178V29.2104L39.3533 28.6452Z" fill="white"/>
</svg>
