<svg width="256" height="48" viewBox="0 0 256 48" fill="none" xmlns="http://www.w3.org/2000/svg">
<rect width="256" height="48" fill="#1D007F"/>
<path fill-rule="evenodd" clip-rule="evenodd" d="M42.5798 16.947H45.2966V14H42.5798V16.947ZM16 17.3948H19.2778L23.2296 26.1528L27.4619 17.3978H30.7814C30.7814 17.3978 24.234 29.757 24.234 29.7471C24.234 29.7355 22.131 29.7471 22.131 29.7471L16 17.3952V17.3948ZM40.1107 33.9855C40.4802 34.0336 42.2494 33.9588 42.6744 33.8087C43.2336 33.6112 45.3147 32.701 45.3026 29.7127V17.3832H42.5798V29.745C42.5681 31.3955 41.2923 31.6162 40.1051 31.5456V33.9794L40.1107 33.9855" fill="white"/>
<path fill-rule="evenodd" clip-rule="evenodd" d="M38.9177 22.2215C38.5633 18.7794 32.7394 18.1196 32.0069 22.2215H38.9177ZM28.8702 24.5908C28.8271 24.3439 28.8031 23.863 28.8048 23.7572V23.7482C28.819 21.9174 29.382 20.7061 29.8741 20.0006L29.8681 19.9946C33.4117 14.6314 42.5878 17.1861 42.0777 24.2549H31.9716C31.8873 28.516 38.0884 29.0404 38.5633 25.3337H41.7938C40.9274 30.8625 30.2596 32.5578 28.8719 24.5908H28.8702ZM55.1699 24.0755C54.1616 25.0365 50.3663 24.8876 49.4316 25.3101C48.5119 25.7252 48.5743 27.0746 49.5792 27.688L49.5908 27.6867L49.5774 27.6811C50.6812 28.3573 55.6564 28.5659 55.1729 24.0781L55.1699 24.0755ZM46.3483 21.6731C46.2837 19.869 47.4064 18.3372 48.8784 17.8219C50.0308 17.2748 53.0509 17.0906 54.9578 17.5668C56.3089 17.8692 57.8446 19.1812 57.9371 20.8244V29.7243H55.2086V29.0167C53.0213 30.8715 49.3968 30.148 49.3968 30.148C46.2067 29.4292 45.2853 27.1305 45.9353 24.8915C46.5848 22.6513 49.349 22.7106 49.349 22.7106L53.2002 22.5102C55.1596 22.2572 55.1497 21.2842 55.1497 21.2842C55.1978 20.5878 54.8572 20.3517 54.7423 20.2269C53.4295 18.7966 49.1942 19.3825 49.3137 21.6731H46.3483Z" fill="white"/>
</svg>
