<svg width="256" height="48" viewBox="0 0 256 48" fill="none" xmlns="http://www.w3.org/2000/svg">
<rect width="256" height="48" fill="white"/>
<path fill-rule="evenodd" clip-rule="evenodd" d="M73.205 17.6614C73.2673 17.9064 72.9928 18.1416 72.8501 18.3216C71.6525 19.8214 70.3243 21.5957 68.7288 22.7348C68.8438 23.3314 68.7828 24.1234 68.5745 24.5605C68.9923 25.0928 69.4359 25.5968 69.6943 26.286C69.3543 28.086 68.5648 29.4822 67.3029 30.3951C66.0712 31.2848 64.4068 31.6358 62.5188 32.0691C58.868 32.908 52.8612 33.7354 50.1528 31.5612C47.2201 33.2764 41.2936 33.5027 38.5506 31.4597C36.6008 33.9199 28.909 33.7039 30.0533 28.822C28.6268 29.8988 26.5176 31.3832 24.5055 32.2215C22.1719 33.1922 17.7529 33.0829 18.1946 29.7863C18.2479 29.3935 18.4144 29.1717 18.6021 28.822C17.9194 27.6347 17.4881 26.8105 17.0753 25.7781C16.68 24.7881 16.077 23.6612 16.0063 22.2784C15.8584 19.3367 18.1586 17.4718 20.4356 16.5956C21.5972 16.1488 22.5409 15.5014 23.6916 15.1768C25.4112 14.6882 26.8853 15.6313 26.9991 17.2056C28.9984 16.6142 31.4329 15.9617 34.0731 16.3436C36.1752 14.7139 40.2805 15.7206 42.9785 16.4946C43.5886 16.6701 44.4095 17.1234 44.8615 17.1041C45.244 17.0886 45.935 16.5711 46.3362 16.3937C48.2294 15.5567 50.7044 14.6657 53.4102 15.1254C53.9225 15.2115 54.3912 15.4821 54.9363 15.5304C55.3066 15.5644 55.7592 15.4487 56.1577 15.4301C62.4815 15.1221 67.7465 16.8141 73.2056 17.6614H73.205ZM55.4969 17.4596C54.8508 17.5367 54.3924 18.2413 53.9701 18.474C54.0009 18.4708 54.0299 18.4656 54.0202 18.4226C54.0974 18.0767 54.2452 17.8009 54.2748 17.4088C50.8882 16.2195 47.5923 17.9578 45.1668 19.2853C43.2267 20.346 41.4961 21.5931 40.2811 22.8358C40.7202 22.0901 41.1863 21.3521 41.7063 20.6552C42.2335 19.9474 42.8204 19.3071 43.2845 18.6771C42.2701 18.4123 41.2531 18.1326 40.2297 17.9154C38.7756 17.6068 36.7531 17.0957 35.5484 17.7636C35.2 17.9565 34.9146 18.4316 34.5816 18.474C34.3058 18.5094 33.8519 18.3088 33.5125 18.2715C32.2692 18.1333 31.1249 18.2484 30.0012 18.474C28.9489 18.6842 26.724 19.0571 26.4385 20.0458C26.256 20.6809 26.6635 21.2961 26.5915 21.9242C26.5221 22.5413 25.9268 23.359 25.6247 23.8515C25.255 24.4558 24.879 24.9906 24.2503 25.2715C23.8697 23.3815 24.2837 21.7005 24.607 20.0978C24.8063 19.1098 25.2081 18.0986 24.8623 17.1041C23.8915 16.9697 23.0745 17.7354 22.1134 18.1179C20.3083 18.8378 18.2981 19.4942 18.0428 21.5681C17.8988 22.7361 18.3392 23.4786 18.6536 24.3079C19.2747 25.9672 20.1135 27.5366 21.1478 28.975C20.8778 29.4687 20.2433 29.5973 20.1797 30.2929C20.4671 30.6979 21.0649 30.7519 21.6557 30.75C23.3631 30.7461 24.7633 29.8898 26.0316 29.1775C28.7933 27.6283 30.6486 25.2439 32.5971 22.9888C32.9391 22.5921 33.2207 22.1145 33.6662 21.8728C34.1033 23.8765 33.2528 24.9482 32.6472 26.59C32.4139 27.2226 31.6778 29.2026 32.0365 30.1405C32.4299 31.1723 35.7799 31.2173 36.6676 30.5481C37.1151 30.2106 37.2931 29.4488 37.5336 28.975C37.8402 28.3656 38.1057 27.8398 38.3474 27.301C38.3609 29.5234 40.0169 30.1759 41.8073 30.649C45.613 31.6519 49.4508 29.8602 51.5272 28.6208C51.2675 30.2672 51.9091 30.4324 53.207 30.7005C56.5627 31.3909 59.9422 30.5944 62.6718 29.9387C65.1744 29.3382 67.1865 28.914 67.5575 26.4377C67.157 26.0925 66.156 26.1355 65.4714 26.2358C63.4528 26.5303 61.4986 27.5473 58.805 27.3512C58.3132 27.3158 57.2519 27.1448 57.1754 26.8446C57.0571 26.3766 57.8979 26.0488 58.6025 25.9318C60.6211 25.591 63.5396 25.935 65.1654 25.321C65.9458 25.0279 66.8876 24.1806 66.7931 23.2421C66.7314 22.6082 65.9015 22.2765 65.114 22.2283C62.8871 22.0894 61.2954 23.3854 58.9586 22.938C59.2505 22.5703 59.3032 21.9641 59.6696 21.6703C61.379 21.6343 63.0395 21.9724 64.6569 21.8728C66.9056 21.7326 68.1733 20.7883 69.2373 19.5392C69.351 19.4042 69.6365 19.2596 69.5426 19.0326C65.6366 18.4399 60.3119 16.8707 55.4962 17.4596H55.4969ZM47.7614 21.3643C47.5107 22.5021 46.9868 23.8045 46.693 25.0671C48.3104 25.0903 50.0165 24.7611 51.6796 24.6615C51.9046 24.3619 52.0152 23.9479 52.138 23.5455C52.4716 24.016 52.7062 24.8968 52.3925 25.5743C49.8667 25.539 48.0513 27.6013 45.5738 27.6032C44.4642 27.6045 43.5211 26.9687 44.0463 25.726C44.7882 23.9743 46.628 22.7503 47.7614 21.3643V21.3643ZM53.6647 19.4871C54.1404 20.0278 55.1819 20.0046 55.8016 20.4013C54.9652 20.6153 53.9122 20.6141 53.1549 20.9072C53.3337 20.4418 53.4937 19.9596 53.6647 19.4878V19.4871Z" fill="black"/>
</svg>
