<?xml version="1.0" encoding="UTF-8"?>
<svg width="32px" height="32px" viewBox="0 0 32 32" version="1.1" xmlns="http://www.w3.org/2000/svg" xmlns:xlink="http://www.w3.org/1999/xlink">
    <!-- Generator: Sketch 50.2 (55047) - http://www.bohemiancoding.com/sketch -->
    <title>grr</title>
    <desc>Created with Sketch.</desc>
    <defs>
        <linearGradient x1="50%" y1="100%" x2="50%" y2="0%" id="linearGradient-1">
            <stop stop-color="#FBD971" offset="0%"></stop>
            <stop stop-color="#EA5568" offset="100%"></stop>
        </linearGradient>
    </defs>
    <g id="Page-1" stroke="none" stroke-width="1" fill="none" fill-rule="evenodd">
        <g id="grr">
            <circle id="Oval" fill="url(#linearGradient-1)" fill-rule="nonzero" cx="16" cy="16" r="16"></circle>
            <path d="M16.03182,24.52894 C18.79743,24.52894 21.04049,24.8072 21.04049,25.69542 C21.04049,26.58364 18.79743,26.5471 16.03182,26.5471 C13.26604,26.5471 11.02298,26.58364 11.02298,25.69542 C11.02298,24.8072 13.26604,24.52894 16.03182,24.52894" id="Shape" fill="#262C38"></path>
            <path d="M9.01873,18.76081 C10.1254969,18.7608597 11.0226731,19.6581031 11.02264,20.76487 C11.0226069,21.8716369 10.1253769,22.7688266 9.01861,22.76881 C7.91184308,22.7687934 7.01464,21.8715769 7.01464,20.76481 C7.01445687,20.2332444 7.22554553,19.7233991 7.6014276,19.347534 C7.97730968,18.9716688 8.48716445,18.760603 9.01873,18.76081" id="Shape" fill="#262C38"></path>
            <path d="M23.04458,18.76081 C24.1513469,18.7608597 25.0485231,19.6581031 25.04849,20.76487 C25.0484569,21.8716369 24.1512269,22.7688266 23.04446,22.76881 C21.9376931,22.7687934 21.04049,21.8715769 21.04049,20.76481 C21.040267,20.2332322 21.2513429,19.7233638 21.6272336,19.34749 C22.0031243,18.9716161 22.5130022,18.7605632 23.04458,18.76081" id="Shape" fill="#262C38"></path>
            <path d="M27.55265,17.73174 C27.55265,17.73174 25.24217,19.57559 18.53581,19.73583 M4.51031,17.73174 C4.51031,17.73174 6.82061,19.5756 13.527,19.73583" id="Shape" stroke="#262C38" stroke-width="1.45595739" stroke-linecap="round" stroke-linejoin="round"></path>
        </g>
    </g>
</svg>