<?xml version="1.0" encoding="UTF-8"?>
<svg width="32px" height="32px" viewBox="0 0 32 32" version="1.1" xmlns="http://www.w3.org/2000/svg" xmlns:xlink="http://www.w3.org/1999/xlink">
    <!-- Generator: Sketch 50.2 (55047) - http://www.bohemiancoding.com/sketch -->
    <title>haha</title>
    <desc>Created with Sketch.</desc>
    <defs></defs>
    <g id="Page-1" stroke="none" stroke-width="1" fill="none" fill-rule="evenodd">
        <g id="haha">
            <path d="M32,16 C32,24.836556 24.836556,32 16,32 C7.163444,32 1.082166e-15,24.836556 0,16 C-1.082166e-15,7.163444 7.163444,1.623249e-15 16,0 C20.2435598,-0.000312997161 24.3134042,1.68529594 27.3140542,4.68594584 C30.3147041,7.68659575 32.000313,11.7564402 32,16" id="Shape" fill="#FCD872" fill-rule="nonzero"></path>
            <path d="M24.9454,12.36491 L20.897,10.92284 C20.8376709,10.8911654 20.8003938,10.8296012 20.7998226,10.7623487 C20.7992515,10.6950962 20.8354774,10.6329078 20.89426,10.60023 L24.9454,9.09078 M7.0546,9.09078 L11.10572,10.60023 C11.1644329,10.6329611 11.2005977,10.69513 11.2000268,10.7623476 C11.1994559,10.8295652 11.1622404,10.8911109 11.10298,10.92284 L7.0546,12.36491" id="Shape" stroke="#262C38" stroke-width="1.45326948" stroke-linecap="round" stroke-linejoin="round"></path>
            <path d="M16,26.03035 C18.6601107,26.0304534 21.2112998,24.9737744 23.0922821,23.0927921 C24.9732644,21.2118098 26.0299434,18.6606207 26.02984,16.00051 L5.97033,16.00051 C5.97106433,21.5394671 10.4610429,26.0295218 16,26.03035" id="Shape" fill="#262C38"></path>
            <path d="M7.09718918,20.6229367 C9.51673774,19.8391785 12.618196,19.36856 15.99982,19.36856 C19.3809519,19.36856 22.4820553,19.8390634 24.9014886,20.6226493 C24.4326692,21.5256139 23.8250195,22.3600548 23.0922821,23.0927921 C21.2112998,24.9737744 18.6601107,26.0304534 16,26.03035 C12.128134,26.0297711 8.76883572,23.8355986 7.09718918,20.6229367 Z" id="Combined-Shape" fill="#F0546A"></path>
        </g>
    </g>
</svg>