<?xml version="1.0" encoding="UTF-8"?>
<svg width="32px" height="32px" viewBox="0 0 32 32" version="1.1" xmlns="http://www.w3.org/2000/svg" xmlns:xlink="http://www.w3.org/1999/xlink">
    <!-- Generator: Sketch 50.2 (55047) - http://www.bohemiancoding.com/sketch -->
    <title>like</title>
    <desc>Created with Sketch.</desc>
    <defs></defs>
    <g id="Page-1" stroke="none" stroke-width="1" fill="none" fill-rule="evenodd">
        <g id="like" fill-rule="nonzero">
            <path d="M32,16.00146 C31.9991937,24.8376476 24.835671,32.0002853 15.9994834,31.9999999 C7.1632958,31.9997146 0.000235717705,24.8366142 7.23074045e-08,16.0004266 C-0.00023557309,7.16423905 7.16244244,0.000756635353 15.99863,-1.77635684e-15 C24.8358337,0.000347916373 31.9997018,7.16425634 32,16.00146" id="Shape" fill="#5890FF"></path>
            <path d="M24.25,16.122 C24.3184112,15.6167015 24.0953768,15.1161353 23.67393,14.8291 C23.8870625,14.4764697 23.9988899,14.0719221 23.99713,13.65989 C23.99713,12.63675 23.20439,12.00149 21.92564,12.00149 L18.62578,12.00149 C18.7416567,11.300413 18.8111144,10.5924497 18.8337,9.88222 C18.8337,8.8029 18.57517,7.45939 17.58857,6.92822 C17.3122319,6.76799299 16.9973473,6.68636368 16.67797,6.69216 C16.281637,6.67305348 15.893458,6.80914479 15.59582,7.07155 C15.5116014,7.16275248 15.4697457,7.28524047 15.48054,7.40891 L15.562,9.649 C15.562,11.28758 12.99867,13.47436 12.99867,15.12426 L12.99867,20.54051 C12.99867,21.40899 14.24946,22.00205 15.93307,22.00205 L20.6523,22.00205 C21.3589711,22.0821794 22.0471512,21.7413788 22.41174,21.13074 C22.6463656,20.6999123 22.6921338,20.1911663 22.53817,19.72538 C23.0846895,19.5708811 23.4950695,19.1179694 23.5951,18.55891 C23.667532,18.2024227 23.6138661,17.8318443 23.44328,17.51055 C23.974946,17.2606815 24.2962576,16.7076306 24.25,16.122" id="Shape" fill="#FFFFFF"></path>
            <path d="M11.18127,14.00133 L8.81745,14.00133 C8.36595388,14.0017931 8.00007341,14.3677138 7.99966,14.81921 L7.99966,22.18335 C8.00007341,22.6348462 8.36595388,23.0007669 8.81745,23.00123 L11.18127,23.00123 C11.398285,23.0015197 11.6064966,22.9154473 11.7599608,22.7620057 C11.913425,22.6085641 11.9995279,22.400365 11.99927,22.18335 L11.99927,14.81921 C11.9995279,14.602195 11.913425,14.3939959 11.7599608,14.2405543 C11.6064966,14.0871127 11.398285,14.0010403 11.18127,14.00133" id="Shape" fill="#FFFFFF"></path>
        </g>
    </g>
</svg>