<?xml version="1.0" encoding="UTF-8"?>
<svg width="32px" height="32px" viewBox="0 0 32 32" version="1.1" xmlns="http://www.w3.org/2000/svg" xmlns:xlink="http://www.w3.org/1999/xlink">
    <!-- Generator: Sketch 50.2 (55047) - http://www.bohemiancoding.com/sketch -->
    <title>sad</title>
    <desc>Created with Sketch.</desc>
    <defs></defs>
    <g id="Page-1" stroke="none" stroke-width="1" fill="none" fill-rule="evenodd">
        <g id="sad">
            <path d="M32,16 C32,24.836556 24.836556,32 16,32 C7.163444,32 1.082166e-15,24.836556 0,16 C-1.082166e-15,7.163444 7.163444,1.623249e-15 16,0 C20.2435508,-0.000283815934 24.3133783,1.68533449 27.3140219,4.68597807 C30.3146655,7.68662165 32.0002838,11.7564492 32,16" id="Shape" fill="#FCD872" fill-rule="nonzero"></path>
            <path d="M19.71429,24.96115 C18.7776612,23.8875728 17.4223713,23.2717087 15.9976464,23.2722512 C14.5729214,23.2727937 13.2181009,23.8896898 12.28229,24.96398" id="Shape" stroke="#262C38" stroke-width="1.45326948" stroke-linecap="round" stroke-linejoin="round"></path>
            <path d="M25.49524,23.17772 C25.79833,23.17772 27.92766,27.74794 27.92766,29.04403 C27.8800278,30.3529459 26.8051123,31.3894562 25.49533,31.3894562 C24.1855477,31.3894562 23.1106322,30.3529459 23.063,29.04403 C23.063,27.74794 25.19233,23.17772 25.49524,23.17772" id="Shape" fill="#5378BB"></path>
            <path d="M9.04471,15.59066 C10.170147,15.6647538 11.0451165,16.5992216 11.0451165,17.727095 C11.0451165,18.8549684 10.170147,19.7894362 9.04471,19.86353 C7.919273,19.7894362 7.04430353,18.8549684 7.04430353,17.727095 C7.04430353,16.5992216 7.919273,15.6647538 9.04471,15.59066" id="Shape" fill="#262C38"></path>
            <path d="M5.59224,15.63638 C6.56347017,14.2589073 8.13482276,13.428904 9.82007,13.4032" id="Shape" stroke="#262C38" stroke-width="1.27371492" stroke-linecap="round" stroke-linejoin="round"></path>
            <path d="M24.95447,17.72735 C24.882163,18.814882 23.9542516,19.64541 22.8653858,19.5971868 C21.7765201,19.5489636 20.9256616,18.6396583 20.9497773,17.5499921 C20.973893,16.4603258 21.8641469,15.5895535 22.95408,15.58955 C24.0964137,15.628367 24.9915181,16.5849576 24.95447,17.72735" id="Shape" fill="#262C38"></path>
            <path d="M22.17856,13.40431 C23.8641326,13.4288267 25.436003,14.259137 26.40639,15.63758" id="Shape" stroke="#262C38" stroke-width="1.27371492" stroke-linecap="round" stroke-linejoin="round"></path>
        </g>
    </g>
</svg>