<?xml version="1.0" encoding="UTF-8"?>
<svg width="32px" height="32px" viewBox="0 0 32 32" version="1.1" xmlns="http://www.w3.org/2000/svg" xmlns:xlink="http://www.w3.org/1999/xlink">
    <!-- Generator: Sketch 50.2 (55047) - http://www.bohemiancoding.com/sketch -->
    <title>wow</title>
    <desc>Created with Sketch.</desc>
    <defs></defs>
    <g id="Page-1" stroke="none" stroke-width="1" fill="none" fill-rule="evenodd">
        <g id="wow">
            <path d="M32,16 C32,24.836556 24.836556,32 16,32 C7.163444,32 1.082166e-15,24.836556 0,16 C-1.082166e-15,7.163444 7.163444,1.623249e-15 16,0 C20.2435508,-0.000283815934 24.3133783,1.68533449 27.3140219,4.68597807 C30.3146655,7.68662165 32.0002838,11.7564492 32,16" id="Shape" fill="#FCD872" fill-rule="nonzero"></path>
            <path d="M16.005,16.58357 C17.87918,16.58357 20.54448,19.07763 20.54448,23.12883 C20.54448,27.18003 18.03073,29.0906 16.005,29.0906 C13.97944,29.0906 11.45439,27.18003 11.45439,23.12883 C11.45439,19.07763 13.94023,16.58357 16.005,16.58357" id="Shape" fill="#262C38"></path>
            <path d="M25.593,11.441 C25.85944,13.21689 25.08237,14.80486 23.85358,14.99 C22.62458,15.17519 21.41258,13.88749 21.14342,12.11151 C20.8768,10.33844 21.65388,8.74774 22.88284,8.56251 C24.11165,8.37732 25.3264,9.6651 25.593,11.441" id="Shape" fill="#262C38"></path>
            <path d="M20.80164,4.29418 C21.75817,3.0373 23.55664,3.32353 24.60309,4.2774" id="Shape" stroke="#262C38" stroke-width="1.27371492" stroke-linecap="round" stroke-linejoin="round"></path>
            <path d="M9.11629,8.56311 C10.34508,8.74822 11.12507,10.33618 10.85571,12.11211 C10.58927,13.888 9.37434,15.17579 8.14555,14.9906 C6.91676,14.80541 6.13969,13.21471 6.40613,11.4416 C6.67549,9.66571 7.8875,8.37801 9.11629,8.5632" id="Shape" fill="#262C38"></path>
            <path d="M7.39708,4.27732 C7.89005243,3.75068956 8.58013162,3.45323436 9.30148534,3.45643557 C10.0228391,3.45963678 10.710251,3.76320498 11.19853,4.29419" id="Shape" stroke="#262C38" stroke-width="1.27371492" stroke-linecap="round" stroke-linejoin="round"></path>
        </g>
    </g>
</svg>